<?xml version="1.0" encoding="UTF-8" standalone="no"?>
<svg
   xmlns:dc="http://purl.org/dc/elements/1.1/"
   xmlns:cc="http://creativecommons.org/ns#"
   xmlns:rdf="http://www.w3.org/1999/02/22-rdf-syntax-ns#"
   xmlns:svg="http://www.w3.org/2000/svg"
   xmlns="http://www.w3.org/2000/svg"
   xmlns:sodipodi="http://sodipodi.sourceforge.net/DTD/sodipodi-0.dtd"
   xmlns:inkscape="http://www.inkscape.org/namespaces/inkscape"
   viewBox="0 0 479.51483 338.97684"
   id="svg2"
   version="1.1"
   inkscape:version="0.91 r13725"
   sodipodi:docname="cassette-tape.svg">
  <metadata
     id="metadata20">
    <rdf:RDF>
      <cc:Work
         rdf:about="">
        <dc:format>image/svg+xml</dc:format>
        <dc:type
           rdf:resource="http://purl.org/dc/dcmitype/StillImage" />
      </cc:Work>
    </rdf:RDF>
  </metadata>
  <defs
     id="defs18" />
  <sodipodi:namedview
     pagecolor="#ffffff"
     bordercolor="#666666"
     borderopacity="1"
     objecttolerance="10"
     gridtolerance="10"
     guidetolerance="10"
     inkscape:pageopacity="0"
     inkscape:pageshadow="2"
     inkscape:window-width="1680"
     inkscape:window-height="978"
     id="namedview16"
     showgrid="false"
     inkscape:zoom="0.69621276"
     inkscape:cx="239.75742"
     inkscape:cy="169.48842"
     inkscape:window-x="0"
     inkscape:window-y="0"
     inkscape:window-maximized="1"
     inkscape:current-layer="svg2" />
  <g
     transform="matrix(5.49593,-0.04631,-0.04631,-5.49593,-3744.2814,4173.6735)"
     id="g4">
    <path
       d="m 718.26908,-14.22052 c 0,1.4404 -1.09545,2.60807 -2.44675,2.60807 -1.3513,0 -2.44675,-1.16767 -2.44675,-2.60807 0,-1.4404 1.09544,-2.60807 2.44675,-2.60807 1.35131,0 2.44675,1.16767 2.44675,2.60807 z"
       transform="matrix(1.74336,0,0,2.83296,-529.93617,772.25787)"
       id="path6"
       inkscape:connector-curvature="0"
       style="fill:#808080" />
    <path
       d="m 693.7612,694.22315 c -1.87921,0 -3.89529,1.85307 -3.89529,3.98382 l 0,11.33186 c 0.63472,0.70669 3.18172,1.03276 0.44263,2.30174 l 0,37.18259 c 0,2.13079 1.57345,3.89529 3.45266,3.89529 l 76.84397,0 c 1.87921,0 3.36413,-1.4104 3.36413,-3.54119 l -0.53115,-39.13023 c -1.41479,-0.53147 0.41006,-2.04213 0.79673,-2.47884 l 0.17705,-9.91533 c 0,-2.13079 -1.9276,-3.62971 -3.80681,-3.62971 l -76.84397,0 z m 61.52829,3.27557 c 1.36838,0 2.47884,1.11051 2.47884,2.47884 0,1.36833 -1.11046,2.47884 -2.47884,2.47884 -1.36838,0 -2.47884,-1.11046 -2.47884,-2.47884 0,-1.36838 1.1105,-2.47884 2.47884,-2.47884 z m -47.80616,0.61972 c 1.36838,0 2.47885,1.11051 2.47885,2.47884 0,1.36833 -1.11047,2.47884 -2.47885,2.47884 -1.36838,0 -2.47884,-1.1105 -2.47884,-2.47884 0,-1.36834 1.11051,-2.47884 2.47884,-2.47884 z m 41.16645,1.50502 c 0.89241,0 1.5935,0.78966 1.5935,1.68207 0,0.89241 -0.70109,1.59354 -1.5935,1.59354 -0.89241,0 -1.59355,-0.70113 -1.59355,-1.59354 0,-0.89241 0.7011,-1.68207 1.59355,-1.68207 z m -35.76609,1.32797 c 0.89241,0 1.59354,0.70114 1.59354,1.5935 0,0.89236 -0.70113,1.59354 -1.59354,1.59354 -0.89241,0 -1.59355,-0.70114 -1.59355,-1.59354 0,-0.8924 0.70114,-1.5935 1.59355,-1.5935 z m -2.21327,26.64749 c 2.56618,0 4.60354,2.03741 4.60354,4.60354 0,2.56613 -2.03736,4.69211 -4.60354,4.69211 -2.56618,0 -4.69206,-2.12598 -4.69206,-4.69211 0,-2.56613 2.12593,-4.60354 4.69206,-4.60354 z m 40.19258,0 c 2.56617,0 4.60354,2.03741 4.60354,4.60354 0,2.56613 -2.03737,4.69211 -4.60354,4.69211 -2.56617,0 -4.69206,-2.12598 -4.69206,-4.69211 0,-2.56613 2.12593,-4.60354 4.69206,-4.60354 z m -31.07398,3.36414 21.86686,0 c 0.31649,0 0.61972,0.77572 0.61972,1.7706 l 0,3.09852 c 0,0.99487 -0.30319,1.77059 -0.61972,1.77059 l -21.86686,0 c -0.31649,0 -0.5312,-0.77572 -0.5312,-1.77059 l 0,-3.09852 c 0,-0.99488 0.21466,-1.7706 0.5312,-1.7706 z"
       id="path8"
       inkscape:connector-curvature="0"
       style="fill:#442178" />
    <path
       d="m 691.14183,692.45336 c -1.87921,0 -3.89529,1.85307 -3.89529,3.98382 l 0,11.33186 c 0.63472,0.70669 3.18172,1.03276 0.44263,2.30174 l 0,37.18259 c 0,2.13079 1.57345,3.89529 3.45266,3.89529 l 76.84397,0 c 1.87921,0 3.36413,-1.4104 3.36413,-3.54119 l -0.53115,-39.13023 c -1.41479,-0.53147 0.41006,-2.04213 0.79673,-2.47884 l 0.17705,-9.91533 c 0,-2.13079 -1.9276,-3.62971 -3.80681,-3.62971 l -76.84397,0 z m 61.52829,3.27557 c 1.36838,0 2.47884,1.11051 2.47884,2.47884 0,1.36833 -1.11046,2.47884 -2.47884,2.47884 -1.36838,0 -2.47884,-1.11046 -2.47884,-2.47884 0,-1.36838 1.1105,-2.47884 2.47884,-2.47884 z m -47.80616,0.61972 c 1.36838,0 2.47885,1.11051 2.47885,2.47884 0,1.36833 -1.11047,2.47884 -2.47885,2.47884 -1.36838,0 -2.47884,-1.1105 -2.47884,-2.47884 0,-1.36834 1.11051,-2.47884 2.47884,-2.47884 z m 41.16645,1.50502 c 0.89241,0 1.5935,0.78966 1.5935,1.68207 0,0.89241 -0.70109,1.59354 -1.5935,1.59354 -0.89241,0 -1.59355,-0.70113 -1.59355,-1.59354 0,-0.89241 0.7011,-1.68207 1.59355,-1.68207 z m -35.76609,1.32797 c 0.89241,0 1.59354,0.70114 1.59354,1.5935 0,0.89236 -0.70113,1.59354 -1.59354,1.59354 -0.89241,0 -1.59355,-0.70114 -1.59355,-1.59354 0,-0.8924 0.70114,-1.5935 1.59355,-1.5935 z m -2.21327,26.64749 c 2.56618,0 4.60354,2.03741 4.60354,4.60354 0,2.56613 -2.03736,4.69211 -4.60354,4.69211 -2.56618,0 -4.69206,-2.12598 -4.69206,-4.69211 0,-2.56613 2.12593,-4.60354 4.69206,-4.60354 z m 40.19258,0 c 2.56617,0 4.60354,2.03741 4.60354,4.60354 0,2.56613 -2.03737,4.69211 -4.60354,4.69211 -2.56617,0 -4.69206,-2.12598 -4.69206,-4.69211 0,-2.56613 2.12593,-4.60354 4.69206,-4.60354 z m -31.07398,3.36414 21.86686,0 c 0.31649,0 0.61972,0.77572 0.61972,1.7706 l 0,3.09852 c 0,0.99487 -0.30319,1.77059 -0.61972,1.77059 l -21.86686,0 c -0.31649,0 -0.5312,-0.77572 -0.5312,-1.77059 l 0,-3.09852 c 0,-0.99488 0.21466,-1.7706 0.5312,-1.7706 z"
       id="path10"
       inkscape:connector-curvature="0"
       style="fill:#8d5fd3" />
    <path
       d="m 700.26043,691.83364 c -1.56947,0 -2.83295,1.4075 -2.83295,3.18709 l 2.83295,10.35799 c 19.36843,-1.70629 38.70719,-2.29675 58.07562,0 -0.23301,-0.2142 2.77827,-9.66681 2.83294,-10.35799 0,-1.77959 -1.26348,-3.18709 -2.83294,-3.18709 l -58.07562,0 z m 52.40969,3.89529 c 1.36838,0 2.47884,1.11051 2.47884,2.47884 0,1.36833 -1.11046,2.47884 -2.47884,2.47884 -1.36838,0 -2.47884,-1.11046 -2.47884,-2.47884 0,-1.36838 1.1105,-2.47884 2.47884,-2.47884 z m -47.80616,0.61972 c 1.36838,0 2.47885,1.11051 2.47885,2.47884 0,1.36833 -1.11047,2.47884 -2.47885,2.47884 -1.36838,0 -2.47884,-1.1105 -2.47884,-2.47884 0,-1.36834 1.11051,-2.47884 2.47884,-2.47884 z m 41.16645,1.50502 c 0.89241,0 1.5935,0.78966 1.5935,1.68207 0,0.89241 -0.70109,1.59354 -1.5935,1.59354 -0.89241,0 -1.59355,-0.70113 -1.59355,-1.59354 0,-0.89241 0.7011,-1.68207 1.59355,-1.68207 z m -35.76609,1.32797 c 0.89241,0 1.59354,0.70114 1.59354,1.5935 0,0.89236 -0.70113,1.59354 -1.59354,1.59354 -0.89241,0 -1.59355,-0.70114 -1.59355,-1.59354 0,-0.8924 0.70114,-1.5935 1.59355,-1.5935 z"
       id="path12"
       inkscape:connector-curvature="0"
       style="fill:#7137c8" />
    <path
       d="m 693.08952,709.80521 c -2.00094,0 -3.54123,1.76702 -3.54123,3.98386 l 0,30.98546 c 0,2.21679 1.54029,4.07238 3.54123,4.07238 l 72.59453,0 c 2.0009,0 3.62971,-1.85559 3.62971,-4.07238 l 0,-30.98546 c 0,-2.21684 -1.62881,-3.98386 -3.62971,-3.98386 l -72.59453,0 z m 14.96153,16.02392 c 2.56618,0 4.60354,2.03741 4.60354,4.60354 0,2.56613 -2.03736,4.69211 -4.60354,4.69211 -2.56618,0 -4.69206,-2.12598 -4.69206,-4.69211 0,-2.56613 2.12593,-4.60354 4.69206,-4.60354 z m 40.19258,0 c 2.56617,0 4.60354,2.03741 4.60354,4.60354 0,2.56613 -2.03737,4.69211 -4.60354,4.69211 -2.56617,0 -4.69206,-2.12598 -4.69206,-4.69211 0,-2.56613 2.12593,-4.60354 4.69206,-4.60354 z m -31.07398,3.36414 21.86686,0 c 0.31649,0 0.61972,0.77572 0.61972,1.7706 l 0,3.09852 c 0,0.99487 -0.30319,1.77059 -0.61972,1.77059 l -21.86686,0 c -0.31649,0 -0.5312,-0.77572 -0.5312,-1.77059 l 0,-3.09852 c 0,-0.99488 0.21466,-1.7706 0.5312,-1.7706 z"
       id="path14"
       inkscape:connector-curvature="0"
       style="fill:#f9f9f9" />
  </g>
</svg>
