<?xml version="1.0" encoding="UTF-8" standalone="no"?>
<svg viewBox="0 0 160 160" xmlns="http://www.w3.org/2000/svg">
<defs>
<linearGradient gradientUnits="userSpaceOnUse" id="linearGradient5881" x1="-12.22736" x2="147.51563" y1="52.9339" y2="104.40916">
<stop offset="0" stop-color="#001dcd"/>
<stop offset="1" stop-color="#000c5d"/>
</linearGradient>
<linearGradient gradientUnits="userSpaceOnUse" id="linearGradient7415" x1="44.1588" x2="112.86124" y1="38.16624" y2="63.64966">
<stop offset="0" stop-color="#fff"/>
<stop offset="1" stop-color="#dadada"/>
</linearGradient>
<radialGradient cx="66.01722" cy="130.17122" gradientTransform="matrix(1.09455,0,0,.91362,-.7565,-.7565)" gradientUnits="userSpaceOnUse" id="radialGradient6649" r="32.32076">
<stop offset="0" stop-color="#cdcdcd"/>
<stop offset="1" stop-color="#7e7e7e"/>
</radialGradient>
</defs>
<path d="m4.539,35.55556c7.24981,40.22065 19.98424,78.92827 34.79906,117.82504l10.96927,4.53901c36.18597-13.86919 73.12845-23.95587 109.69267-31.3948-18.28211-39.96846-31.07959-80.50432-41.79669-122.17493-38.64461,6.80851-76.15446,16.64303-113.66431,31.20567zm5.10639,3.026c.56737,2.83688 1.13475,6.52482 2.2695,9.64539 2.2695-.97715 4.53901-2.23798 6.99764-2.2695-1.13476-3.12057-2.08038-6.71395-2.36407-9.64539-2.08038.31521-4.82269.91411-6.90307,2.2695zm99.38534-26.19385c.56738,2.83688 1.13476,6.52482 2.26951,9.64539 2.2695-.97715 4.539-2.23798 6.99763-2.2695-1.13475-3.12057-2.08038-6.71395-2.36406-9.64539-2.08038.31521-4.8227.91411-6.90308,2.2695z" fill-opacity=".51852" fill-rule="evenodd"/>
<path d="m1.32388,33.6643c7.2498,40.22064 19.98424,78.92829 34.79905,117.82506l10.96927,4.53901c36.18597-13.86919 73.12845-23.95587 109.69267-31.3948-18.28211-39.96848-31.07959-80.50433-41.79669-122.17494-38.6446,6.80851-76.15445,16.64303-113.6643,31.20567zm5.10638,3.02601c.56738,2.83688 1.13475,6.52482 2.2695,9.64539 2.2695-.97715 4.53901-2.23798 6.99764-2.2695-1.13475-3.12057-2.08038-6.71395-2.36407-9.64539-2.08038.31521-4.8227.91411-6.90307,2.2695zm99.38534-26.19385c.56738,2.83688 1.13476,6.52482 2.26951,9.64539 2.2695-.97715 4.539-2.23798 6.99763-2.2695-1.13475-3.12057-2.08038-6.71395-2.36406-9.64539-2.08038.31521-4.8227.91411-6.90308,2.2695z" fill="url(#linearGradient5881)" fill-rule="evenodd" stroke="#000" stroke-linejoin="bevel" stroke-width="2"/>
<path d="m57.11584,152.05674c-6.61939-14.31048-10.96927-30.51221-14.75177-45.76832 21.30812-8.88889 42.61624-15.88653 64.49173-20.99291 3.21513,16.95824 9.26713,31.83609 15.88652,46.90307-21.87549,4.91726-43.75099,12.48227-65.62648,19.85816zm-6.80851-44.25532c3.08905,15.19306 5.98897,24.71238 11.91489,38.20331 5.86288-2.58471 9.64539-4.2238 15.88652-5.48464-5.48463-12.41923-8.88889-25.21669-11.72577-38.39242-5.16943.94562-11.09535,3.21512-16.07565,5.67375z" fill="url(#radialGradient6649)" fill-rule="evenodd" stroke="#000" stroke-linejoin="bevel" stroke-width="2"/>
<path d="m15.50827,28.74705c5.04334,24.64933 11.97794,51.00079 20.80378,73.94799 28.24271-10.33885 56.29629-20.29944 85.67375-25.91016-8.69976-23.13633-16.26478-47.21828-22.12766-71.48936-28.55792,5.98897-57.30496,13.30181-84.34988,23.45154z" fill="url(#linearGradient7415)" fill-rule="evenodd" stroke="#000" stroke-linejoin="bevel" stroke-width="2"/>
</svg>
