<?xml version="1.0" encoding="UTF-8" standalone="no"?>
<!DOCTYPE svg PUBLIC "-//W3C//DTD SVG 20010904//EN" "http://www.w3.org/TR/2001/REC-SVG-20010904/DTD/svg10.dtd">
<svg viewBox="0 0 60 60" xmlns="http://www.w3.org/2000/svg">
<path d="m30.28125,4.65625c-14.04739,0-25.4375,11.39011-25.4375,25.4375s11.39011,25.4375 25.4375,25.4375 25.4375-11.3901 25.4375-25.4375-11.3901-25.4375-25.4375-25.4375zm-10.53125,8.15625h6.28125c.2596,0 .46875.20915.46875.46875v33.75c0,.2596-.20915.46875-.46875.46875h-6.28125c-.2596,0-.46875-.20915-.46875-.46875v-33.75c0-.2596.20915-.46875.46875-.46875zm14.90625,0h6.28125c.2596,0 .46875.20915.46875.46875v33.75c0,.2596-.20915.46875-.46875.46875h-6.28125c-.2596,0-.46875-.20915-.46875-.46875v-33.75c0-.2596.20915-.46875.46875-.46875z" fill="#b3b3b3" fill-rule="evenodd" stroke="#333" stroke-linecap="round" stroke-linejoin="round" stroke-width="3.125"/>
</svg>
