<?xml version="1.0" encoding="UTF-8" standalone="no"?>
<svg viewBox="0 0 479.51483 338.97684" xmlns="http://www.w3.org/2000/svg">
<g transform="matrix(5.49593,.04631,-.04631,5.49593,-3744.28144,-3834.69886)">
<path d="m718.26908-14.22052c0,1.4404-1.09545,2.60807-2.44675,2.60807s-2.44675-1.16767-2.44675-2.60807 1.09544-2.60807 2.44675-2.60807 2.44675,1.16767 2.44675,2.60807z" fill="#808080" transform="matrix(1.74336,0,0,2.83296,-529.93617,772.25787)"/>
<path d="m693.7612,694.22315c-1.87921,0-3.89529,1.85307-3.89529,3.98382v11.33186c.63472.70669 3.18172,1.03276.44263,2.30174v37.18259c0,2.13079 1.57345,3.89529 3.45266,3.89529h76.84397c1.87921,0 3.36413-1.4104 3.36413-3.54119l-.53115-39.13023c-1.41479-.53147.41006-2.04213.79673-2.47884l.17705-9.91533c0-2.13079-1.9276-3.62971-3.80681-3.62971h-76.84397zm61.52829,3.27557c1.36838,0 2.47884,1.11051 2.47884,2.47884s-1.11046,2.47884-2.47884,2.47884-2.47884-1.11046-2.47884-2.47884 1.1105-2.47884 2.47884-2.47884zm-47.80616.61972c1.36838,0 2.47885,1.11051 2.47885,2.47884s-1.11047,2.47884-2.47885,2.47884-2.47884-1.1105-2.47884-2.47884 1.11051-2.47884 2.47884-2.47884zm41.16645,1.50502c.89241,0 1.5935.78966 1.5935,1.68207s-.70109,1.59354-1.5935,1.59354-1.59355-.70113-1.59355-1.59354 .7011-1.68207 1.59355-1.68207zm-35.76609,1.32797c.89241,0 1.59354.70114 1.59354,1.5935s-.70113,1.59354-1.59354,1.59354-1.59355-.70114-1.59355-1.59354 .70114-1.5935 1.59355-1.5935zm-2.21327,26.64749c2.56618,0 4.60354,2.03741 4.60354,4.60354s-2.03736,4.69211-4.60354,4.69211-4.69206-2.12598-4.69206-4.69211 2.12593-4.60354 4.69206-4.60354zm40.19258,0c2.56617,0 4.60354,2.03741 4.60354,4.60354s-2.03737,4.69211-4.60354,4.69211-4.69206-2.12598-4.69206-4.69211 2.12593-4.60354 4.69206-4.60354zm-31.07398,3.36414h21.86686c.31649,0 .61972.77572.61972,1.7706v3.09852c0,.99487-.30319,1.77059-.61972,1.77059h-21.86686c-.31649,0-.5312-.77572-.5312-1.77059v-3.09852c0-.99488.21466-1.7706.5312-1.7706z" fill="#442178"/>
<path d="m691.14183,692.45336c-1.87921,0-3.89529,1.85307-3.89529,3.98382v11.33186c.63472.70669 3.18172,1.03276.44263,2.30174v37.18259c0,2.13079 1.57345,3.89529 3.45266,3.89529h76.84397c1.87921,0 3.36413-1.4104 3.36413-3.54119l-.53115-39.13023c-1.41479-.53147.41006-2.04213.79673-2.47884l.17705-9.91533c0-2.13079-1.9276-3.62971-3.80681-3.62971h-76.84397zm61.52829,3.27557c1.36838,0 2.47884,1.11051 2.47884,2.47884s-1.11046,2.47884-2.47884,2.47884-2.47884-1.11046-2.47884-2.47884 1.1105-2.47884 2.47884-2.47884zm-47.80616.61972c1.36838,0 2.47885,1.11051 2.47885,2.47884s-1.11047,2.47884-2.47885,2.47884-2.47884-1.1105-2.47884-2.47884 1.11051-2.47884 2.47884-2.47884zm41.16645,1.50502c.89241,0 1.5935.78966 1.5935,1.68207s-.70109,1.59354-1.5935,1.59354-1.59355-.70113-1.59355-1.59354 .7011-1.68207 1.59355-1.68207zm-35.76609,1.32797c.89241,0 1.59354.70114 1.59354,1.5935s-.70113,1.59354-1.59354,1.59354-1.59355-.70114-1.59355-1.59354 .70114-1.5935 1.59355-1.5935zm-2.21327,26.64749c2.56618,0 4.60354,2.03741 4.60354,4.60354s-2.03736,4.69211-4.60354,4.69211-4.69206-2.12598-4.69206-4.69211 2.12593-4.60354 4.69206-4.60354zm40.19258,0c2.56617,0 4.60354,2.03741 4.60354,4.60354s-2.03737,4.69211-4.60354,4.69211-4.69206-2.12598-4.69206-4.69211 2.12593-4.60354 4.69206-4.60354zm-31.07398,3.36414h21.86686c.31649,0 .61972.77572.61972,1.7706v3.09852c0,.99487-.30319,1.77059-.61972,1.77059h-21.86686c-.31649,0-.5312-.77572-.5312-1.77059v-3.09852c0-.99488.21466-1.7706.5312-1.7706z" fill="#8d5fd3"/>
<path d="m700.26043,691.83364c-1.56947,0-2.83295,1.4075-2.83295,3.18709l2.83295,10.35799c19.36843-1.70629 38.70719-2.29675 58.07562,0-.23301-.2142 2.77827-9.66681 2.83294-10.35799 0-1.77959-1.26348-3.18709-2.83294-3.18709h-58.07562zm52.40969,3.89529c1.36838,0 2.47884,1.11051 2.47884,2.47884s-1.11046,2.47884-2.47884,2.47884-2.47884-1.11046-2.47884-2.47884 1.1105-2.47884 2.47884-2.47884zm-47.80616.61972c1.36838,0 2.47885,1.11051 2.47885,2.47884s-1.11047,2.47884-2.47885,2.47884-2.47884-1.1105-2.47884-2.47884 1.11051-2.47884 2.47884-2.47884zm41.16645,1.50502c.89241,0 1.5935.78966 1.5935,1.68207s-.70109,1.59354-1.5935,1.59354-1.59355-.70113-1.59355-1.59354 .7011-1.68207 1.59355-1.68207zm-35.76609,1.32797c.89241,0 1.59354.70114 1.59354,1.5935s-.70113,1.59354-1.59354,1.59354-1.59355-.70114-1.59355-1.59354 .70114-1.5935 1.59355-1.5935z" fill="#7137c8"/>
<path d="m693.08952,709.80521c-2.00094,0-3.54123,1.76702-3.54123,3.98386v30.98546c0,2.21679 1.54029,4.07238 3.54123,4.07238h72.59453c2.0009,0 3.62971-1.85559 3.62971-4.07238v-30.98546c0-2.21684-1.62881-3.98386-3.62971-3.98386h-72.59453zm14.96153,16.02392c2.56618,0 4.60354,2.03741 4.60354,4.60354s-2.03736,4.69211-4.60354,4.69211-4.69206-2.12598-4.69206-4.69211 2.12593-4.60354 4.69206-4.60354zm40.19258,0c2.56617,0 4.60354,2.03741 4.60354,4.60354s-2.03737,4.69211-4.60354,4.69211-4.69206-2.12598-4.69206-4.69211 2.12593-4.60354 4.69206-4.60354zm-31.07398,3.36414h21.86686c.31649,0 .61972.77572.61972,1.7706v3.09852c0,.99487-.30319,1.77059-.61972,1.77059h-21.86686c-.31649,0-.5312-.77572-.5312-1.77059v-3.09852c0-.99488.21466-1.7706.5312-1.7706z" fill="#f9f9f9"/>
</g>
</svg>
