<?xml version="1.0" encoding="UTF-8" standalone="no"?>
<svg viewBox="0 0 406.88959 310.43228" xmlns="http://www.w3.org/2000/svg">
<defs>
<linearGradient gradientUnits="userSpaceOnUse" id="linearGradient3263" x1="292.16949" x2="698.55908">
<stop offset="0"/>
<stop offset="1" stop-color="#f00" stop-opacity="0"/>
</linearGradient>
</defs>
<g fill="url(#linearGradient3263)" stroke="#000" stroke-width="1.8" transform="translate(-291.66949,-392.42211)">
<path d="m625,700.87927c-2.89253-1.15002-7.6886-5.48641-9.24334-8.35741-.58917-1.08798-1.37067-6.66923-1.73665-12.40277-.63562-9.95773-.79564-10.52845-3.57289-12.74295-1.59911-1.27509-4.1228-2.58527-5.6082-2.91152s-3.19942-1.19407-3.80894-1.9285c-.72193-.86987-2.41456-1.1601-4.85603-.83263-2.56907.34459-13.17165-1.7081-33.71088-6.52651-48.29287-11.32928-62.71436-14.43808-66.96307-14.43504-5.44666.00391-111.51351,23.72115-117.19607,26.20582-2.34265,1.02431-3.11162,3.18503-5.88676,16.54128-1.40149,6.74513-2.22845,8.55753-5.31111,11.64019-10.14803,10.14804-28.24017,6.51878-34.28181-6.87688-2.48767-5.51571-1.76679-9.51901 3.47035-19.27193 4.63318-8.62818 4.5889-9.67332-.76033-17.9467-4.12825-6.38495-4.63176-12.0606-1.64423-18.53372 3.55121-7.69442 10.16998-11.5 20.00112-11.5 7.17753,0 11.09448,2.671 12.93741,8.82214 1.59365,5.31913 3.27758,6.45929 9.33825,6.32275 7.15453-.16119 46.20916-5.56824 55.72782-7.71543 5.73742-1.29422-.25604-2.88806-36.89464-9.81136-28.44567-5.37515-46.46111-7.94178-50.46796-7.19009-4.73095.88753-9.77942,5.46936-15.41785,13.99273-5.62097,8.49697-9.50955,11.02797-16.68505,10.85997-12.52214-.29318-21.70033-10.52124-19.545-21.78071 1.04414-5.45465 2.41877-7.75912 8.71119-14.60369 6.07839-6.61178 6.54957-8.77695 3.41361-15.68648-6.8719-15.14107-3.73322-27.29216 8.59069-33.25806 3.55764-1.72222 5.77163-2.09296 10.46949-1.75315 10.01867.72468 14.34082,5.44074 17.86536,19.49353 2.90086,11.56606 4.83472,14.53208 11.28388,17.30644 9.35734,4.02542 39.02167,11.13651 89.78164,21.52233 35.33711,7.2302 49.2624,9.38688 54.18928,8.39254 38.5127-7.77261 52.57289-10.66682 69.81072-14.37016 11.275-2.4223 22.075-4.70353 24-5.0694 9.87127-1.87617 47.30757-11.58159 49.95614-12.95122 4.06092-2.09998 7.39026-7.59504 10.58957-17.47801 1.44806-4.47321 3.58583-9.02095 4.75059-10.10609 5.29669-4.93461 19.60548-5.25466 26.64523-.59597 7.76757,5.14033 9.63343,15.98591 4.24203,24.65739-3.77416,6.07034-2.90071,10.04378 3.92005,17.83272 12.01854,13.72452 6.8437,30.62099-10.07315,32.89002-3.06428.41101-5.28399-.10134-9.61104-2.21836-4.73972-2.31893-5.97799-3.51141-7.85647-7.5659-3.13054-6.75696-6.92663-11.43227-10.47611-12.90251-2.60653-1.07966-4.69712-.88992-14.81088,1.34422-6.47678,1.43072-20.97972,4.43532-32.22876,6.67688s-20.69904,4.22594-21,4.40972-6.3972,1.55373-13.5472,3.04432c-14.02867,2.92462-15.10905,3.27999-13.83713,4.55145 1.41016,1.40966 53.73643,9.59735 57.83713,9.05 2.93591-.39187 5.95221-3.96493 7.9469-9.41372 2.06722-5.64696 7.35492-11.1483 12.27657-12.77259 1.92536-.63543 5.89277-.95695 8.81646-.7145 10.2354.8488 16.40087,8.54012 17.2483,21.51696 .62696,9.6009-.63261,12.26406-8.93263,18.88651-3.75908,2.9993-7.10114,6.51492-7.42681,7.81249-.35777,1.42548.6707,6.03714 2.5986,11.65205 4.88901,14.23904 3.32408,20.88143-6.04782,25.67024-4.72494,2.41433-12.45441,2.9284-16.97957,1.12927zm-265.20864-117.84855c-4.51385-1.39255-8.63615-4.91051-11.5375-9.84607l-2.75386-4.68465-.3122-26.48038c-.28905-24.51719-.16855-26.77839 1.6253-30.5 1.83499-3.80697 1.93758-6.59491 1.93924-52.69991 .00172-47.82355.03974-48.75875 2.15987-53.13837 2.11602-4.37111 7.00166-8.60074 12.17206-10.53769 3.96075-1.48379 257.54052-2.59104 262.89975-1.14795 5.26693,1.41823 12.42894,8.37847 14.04881,13.65301 .80956,2.63604 1.33057,18.99736 1.65116,51.85129 .44116,45.21001.58054,48.18178 2.39798,51.12739 1.77414,2.87543 1.92595,5.13116 1.88441,28-.02923,16.09465-.46265,26.28428-1.2281,28.87261-1.78034,6.02011-9.14605,12.92977-15.29441,14.34745-5.94783,1.37143-265.35287,2.50974-269.65251,1.18327zm71.28556-8.9538c5.18095-5.18095 2.6173-13.27586-4.6449-14.66659-4.60978-.88278-9.43202,3.45653-9.43202,8.48743 0,8.26213 8.33517,11.92091 14.07692,6.17916zm138.85156.46007c1.55604-.80466 3.10869-2.19147 3.45034-3.08179 3.35294-8.73762-6.04786-16.25142-12.76813-10.2052-4.1996,3.77838-3.60316,10.60455 1.15202,13.18468 3.48104,1.8888 4.68198,1.90384 8.16577.10231zm-107-4c3.14755-1.62767 4.07152-3.33808 4.07152-7.53699s-.92397-5.90932-4.07152-7.53699c-4.03785-2.08805-6.34566-1.8243-9.85175,1.12588-2.42203,2.03801-3.06996,3.36794-3.04493,6.25 .06391,7.35731 6.32667,11.09558 12.89668,7.6981zm75.61697-1.99154c6.75274-6.75273-1.43819-17.86822-9.86119-13.38211-7.98343,4.252-5.19218,15.83666 3.81574,15.83666 2.47924,0 4.35079-.75988 6.04545-2.45455zm-105.46773-62.68688c18.05088-5.40818 20.74407-30.84623 4.28687-40.49079-8.90851-5.22074-21.2077-3.08709-27.89034,4.83837-4.2801,5.0761-5.73723,9.48145-5.27048,15.93425 1.06009,14.65556 14.69436,23.96648 28.87395,19.71817zm142.94424-3.2544c5.90359-3.90682 9.2801-9.63206 9.7833-16.58863 .51213-7.08011-1.01448-12.0453-5.15254-16.75829-8.45486-9.62955-25.03952-9.70449-33.09563-.14955-9.57882,11.36095-6.56423,27.36073 6.44291,34.19544 4.83393,2.54002 6.26059,2.83142 11.7805,2.40614 4.53227-.34918 7.38306-1.21351 10.24146-3.10511zm-52.24102-14.15882c.97019-.30775 1.21278-3.38279 1-12.67584l-.28094-12.26951-28.37851-.26579c-20.10255-.18828-28.77847.06615-29.75.87244-1.70474,1.41482-1.97224,22.8926-.30587,24.55897 1.00857,1.00857 54.48481.80448 57.71532-.22027z" fill="url(#linearGradient3263)" stroke="#000" stroke-width="1.8"/>
<path d="m624.5,699.42741c-7.54573-3.92447-9.48541-8.14819-9.49442-20.67453-.0054-7.49625-.12292-7.87699-3.62901-11.75783-3.00196-3.32281-3.5208-4.52391-3.025-7.00288 .71226-3.56131.37319-3.68648-2.27788-.8409-1.68227,1.80572-2.2555,1.94273-3.56857.85298-1.2138-1.00737-2.12846-1.04127-4.08179-.15127-3.45062,1.57221-8.64504,1.43799-13.15309-.33986-5.39533-2.12776-32.58398-8.58947-40.27024-9.57069-3.575-.45639-12.575-2.24559-20-3.976s-16.2-3.76494-19.5-4.52119-7.70377-1.39079-9.78616-1.41011c-5.9945-.05562-113.45648,23.72206-117.94092,26.09632-2.6202,1.38724-3.62059,3.90144-5.80154,14.5805-2.2925,11.22527-3.84699,13.87722-10.02992,17.11102-3.66313,1.91588-5.52578,2.24361-10.62899,1.87016-7.39044-.54082-12.33589-3.2603-16.00123-8.799-3.58824-5.4222-3.02459-13.38839 1.46338-20.68227 4.30024-6.98877 4.70462-9.25294 2.71983-15.22856-1.88664-5.68014-1.62498-6.65871 1.35416-5.06432 3.10735,1.663 9.15139,1.38629 9.15139-.41898 0-.825.45-1.5 1-1.5s1,.40598 1,.90217c0,1.55626 5.35175,2.77888 8.86498,2.02524 1.85075-.39702 4.77575-.3054 6.5.20359 3.41485,1.00804 15.63502.11663 15.63502-1.14051 0-.42708-.70352-1.04648-1.56338-1.37644-2.02741-.77799-.88787-2.61405 1.6224-2.61405 1.27431,0 1.94098.68694 1.94098,2 0,2.57704 2.74054,2.60634 11.14466.11913 7.35524-2.17678 12.41239-3.42547 22.85534-5.64334 14.56574-3.09347 20.11551-4.74357 23.36065-6.94578 1.80427-1.22442 6.62373-3.22956 10.70992-4.45588 8.30407-2.49216 19.06523-7.97107 23.06472-11.7431 2.46032-2.3204 3.22388-2.46548 11.5-2.1851 9.29844.315 4.69972,1.20751 100.95046-19.59213 20.70464-4.47424 48.57226-11.53495 52.06112-13.19052 4.72299-2.2412 7.92596-7.27177 10.98823-17.25803 3.08251-10.05228 5.40964-12.55754 13.15902-14.16631 16.20138-3.36339 28.91148,8.13272 24.13626,21.83093-1.184,3.39644-3.54512,4.74357-14.43038,8.23324-9.86086,3.16127-16.5,6.07308-16.5,7.23661 0,.54639 1.0125.75223 2.25.45743 11.35657-2.7054 19.412-5.0079 20.2-5.7738 1.67805-1.63098 2.2808-1.0083 2.92527,3.02197 .44288,2.76965 2.12828,5.65649 5.65585,9.68763 2.76373,3.15828 5.28535,6.77977 5.60359,8.04777s.98063,2.05701 1.47196,1.75335 .89333,1.27445.89333,3.50691-.37777,4.05902-.83948,4.05902c-1.12001,0-3.16052,4.58607-3.16052,7.10328 0,3.62973-14.349,8.42237-17.96024,5.99881-1.26227-.84713-1.22837-1.23619.25-2.86978 .94063-1.03939 1.71024-2.19186 1.71024-2.56105 0-1.30801-4.77389-.64863-6,.82874-2.07902,2.50507-4.65976,1.73678-6.38606-1.90113-.88767-1.87062-1.61394-3.94336-1.61394-4.60609 0-2.15357-5.89483-8.71499-9.26742-10.31539-3.02352-1.43475-3.96728-1.40547-11.75996.36486-4.65994,1.05863-13.67563,2.82846-20.03487,3.93294s-15.13424,3.07805-19.5,4.38571-12.21275,3.31458-17.43775,4.45982c-22.41286,4.91257-29.3878,6.74691-29.72954,7.81854-.22553.70725 2.21396,1.57527 6.43312,2.28905 3.73803.63238 8.82142,1.779 11.29642,2.54804 3.71053,1.15294 21.72505,4.08677 38,6.18864 2.25006.29059 4.68908-.2036 6.82959-1.3838 3.30531-1.82243 3.79955-2.51945 8.07687-11.39081 5.05325-10.48068 16.98958-13.76873 27.01308-7.44117 4.95857,3.13021 7.69401,8.41137 8.67352,16.74548 1.12381,9.56186-.37701,12.07413-13.53658,22.65931-4.65055,3.74076-4.7133,4.57309-1.10423,14.646 2.93136,8.18142 3.47723,15.79268 1.44045,20.08487-3.25341,6.85607-16.54675,10.66309-23.8927,6.84254zm9.5-37.42741c0-.55-.675-1-1.5-1s-1.5.45-1.5,1 .675,1 1.5,1 1.5-.45 1.5-1zm8.44423-.90976c.86297-1.39631-.48801-4.09024-2.05122-4.09024-.76615,0-1.39301.825-1.39301,1.83333 0,2.8474 2.19169,4.28356 3.44423,2.25691zm-5.92608-7.11961c.28296-.45784.11179-1.0813-.38038-1.38548-1.23684-.76441-7.28403,2.36918-6.62618,3.43361 .57952.93768 6.17148-.69693 7.00656-2.04813zm53.98404-33.80178c-.66386-.66385-4.50219,2.88313-4.50219,4.16045 0,.56063 1.12323-.03589 2.49606-1.3256s2.27559-2.56539 2.00613-2.83485zm-48.05983-22.07559c.30822-.49871-.34022-.67122-1.44098-.38337-2.33499.61061-2.63015,1.29011-.5604,1.29011 .79254,0 1.69316-.40803 2.00138-.90674zm-283.46242,47.38257c-.69572-.83829-1.00973-1.77938-.6978-2.0913 1.00937-1.00938 4.71786.70646 4.71786,2.18286 0,1.88817-2.42282,1.833-4.02006-.09156zm-5.97994-2.47583c0-.55.19844-1 .44098-1s.7191.45 1.05902,1 .14148,1-.44098,1-1.05902-.45-1.05902-1zm-15-6c0-.55.45-1 1-1s1,.45 1,1-.45,1-1,1-1-.45-1-1zm-34.80267-4.10719c-5.89478-2.95095-9.19733-8.03443-9.19733-14.15706 0-6.5863 1.87981-10.53464 8.38391-17.60947 6.84497-7.44562 7.5946-9.93252 4.75545-15.77634-1.17665-2.42189-2.13936-5.04116-2.13936-5.82059 0-1.45848 12.16137-11.01828 17.5-13.75639 1.65-.84626 5.36119-2.74375 8.24708-4.21663s5.69248-2.4027 6.23686-2.06626 1.69507,3.17632 2.55708,6.31083c4.22148,15.35043 6.00349,17.93739 15.73011,22.83564l7.06349,3.55712-4.63178,2.88289c-3.11907,1.94136-5.86811,2.85382-8.41731,2.79386-9.69128-.22794-19.97301,5.24058-19.61055,10.43021 .11353,1.62543-.4277,2.66296-1.54101,2.95409-.96279.25178-2.34552,2.37927-3.15024,4.84702-.78884,2.41905-2.6427,6.20397-4.11967,8.41094s-2.83811,5.35697-3.02474,7c-.32137,2.82927-.60387,3.00179-5.33932,3.2607-3.54614.19388-6.2511-.35293-9.30267-1.88056zm40.34768-26.14281c.93013-3.07862 1.93992-3.9987 3.94417-3.59378 1.52435.30796 1.47576.63028-.46636,3.09378-2.63329,3.34023-4.41323,3.59613-3.47781.5zm15.61278-25.42522c-4.66015-1.60688-9.9998-7.01813-11.14031-11.28967-.51913-1.94431-.96221-14.03884-.98462-26.87674s-.31358-24.42867-.64704-25.75728c-.36378-1.4494.02366-3.3771.9686-4.81925 1.37041-2.09151 1.61194-8.93953 1.86024-52.74271 .31403-55.39989.09876-53.46504 6.63207-59.60912 5.74551-5.40321 7.25224-5.62121 39.65327-5.7371 224.52211-.80309 228.93054-.78935 232.51562.72458 3.80103,1.60512 9.41487,7.40172 11.27648,11.6436 .81037,1.84651 1.25094,17.19482 1.46722,51.1143 .29085,45.61494.42187,48.66653 2.22032,51.71468 1.7336,2.93823 1.93201,5.68228 2.13475,29.52461 .20082,23.61683.03912,26.67317-1.59281,30.10577-2.28816,4.8129-6.28889,8.84258-11.20113,11.28218-3.61194,1.79381-6.63124,1.89126-55.32045,1.78542-29.51568-.06417-52.78064-.51864-54.5-1.06464-1.66848-.52985-3.57902-2.14455-4.30457-3.63805-1.66791-3.43328-2.56537-3.37893-5.19543.31464-2.80361,3.9373-6,4.04368-6,.19968 0-2.04064-1.49766-4.34657-5.52057-8.5-3.03632-3.13483-6.13465-5.69968-6.88519-5.69968s-2.87247-.634-4.7154-1.4089c-2.14205-.90066-3.94924-1.08861-5.0098-.52101-1.1266.60294-2.05295.41323-2.88648-.5911-.99754-1.20196-.92355-1.47899.395-1.47899 2.67272,0 1.832-1.73118-1.12756-2.32181-7.91803-1.58017-12.82063-2.79262-16.92037-4.18451-5.30667-1.80167-10.17459-1.19007-13.90912,1.7475-2.13193,1.67698-2.97784,1.82591-5.03835.88708-3.35865-1.5303-6.38216-1.4215-6.38216.22966 0,.78957 1.7732,1.73198 4.23662,2.25165 6.35175,1.33993 6.23984,3.90806-.23075,5.29575-6.35266,1.3624-6.05448,1.38492-5.3675-.40532 .35241-.91835-.00024-1.5-.90941-1.5-.81676,0-2.14662-.99643-2.95525-2.21429-1.23478-1.85968-2.39355-2.21428-7.23591-2.21428-5.23524,0-6.0312.29716-8.65174,3.23006-2.01551,2.25575-2.88606,4.28496-2.88606,6.72728 0,3.14954-.42252,3.6862-4.25,5.39807-4.64655,2.0782-14.2353,5.07316-16.24239,5.07316-.6945,0-1.80072.64825-2.45828,1.44056s-1.84339,1.19196-2.63518.88812-1.99639-.0932-2.67688.46808c-1.84084,1.51835-23.50458,1.93311-27.57948.52802zm211.29741-5.94596c2.69097-1.03262 4.79706-6.22061 4.07904-10.048-.70117-3.73757-5.23322-7.32033-9.26846-7.32708-2.76793-.00463-8.10141,4.7961-8.32815,7.49626-.34713,4.13398.12972,5.65826 2.51692,8.04545 2.44159,2.4416 7.30389,3.25195 11.00065,1.83337zm-58.9552-3.37882c.33992-.55-.08352-1-.94098-1s-1.55902.45-1.55902,1 .42344,1 .94098,1 1.2191-.45 1.55902-1zm28.09093-2.08543c6.86434-6.44871.33085-19.4102-8.68336-17.22651-3.42301.82922-7.70249,5.10173-8.43062,8.41687-1.93606,8.81485 10.36707,15.14804 17.11398,8.80964zm-160.59093-34.41457 2.5-1.42913-3.05887-.03543c-1.68238-.01949-3.93238.62525-5,1.43276-1.87341,1.41697-1.85391,1.46807.55887,1.46456 1.375-.002 3.625-.64674 5-1.43276zm106.75-6.75c-.22917-.6875-1.46667-1.25-2.75-1.25s-2.52083.5625-2.75,1.25c-.27485.82456.66111,1.25 2.75,1.25s3.02485-.42544 2.75-1.25zm-123.25-1.75c-.33992-.55-.81648-1-1.05902-1s-.44098.45-.44098,1 .47656,1 1.05902,1 .7809-.45.44098-1zm22.5-8c1.29269-.8354 1.26629-.97149-.19098-.98469-.93004-.00842-1.9691.43469-2.30902.98469-.78218,1.2656.54163,1.2656 2.5,0zm-13.27536-2.65891c.42843-1.30214-5.11284-2.83724-6.70024-1.85617-1.566.96784-1.22228,2.31473.7256,2.84332 2.74765.74562 5.55727.28141 5.97464-.98715zm65.27536-10.80936c6.95421-3.5879 10.67285-7.2916 11.96898-11.92092 2.479-8.85412-1.56024-21.8325-8.38027-26.92647-5.15358-3.84927-9.07656-4.94994-16.05804-4.5054-5.18178.32996-7.35011,1.01634-10.7601,3.40608-5.52473,3.87178-10.77057,12.50083-10.77057,17.71684 0,4.50873 2.63178,14.2004 4.72438,17.39774 4.89276,7.4758 19.48366,9.88412 29.27562,4.83213zm138.97356-2.36946c2.67094-1.62107 5.69308-4.68765 7.5-7.61029 5.33705-8.63247 3.69564-21.41519-3.62624-28.23991-5.72325-5.33464-15.02534-7.5035-22.84732-5.32705-11.62883,3.2357-19.58449,19.99773-14.38805,30.31464 6.61256,13.12843 21.59219,18.00583 33.36161,10.86261zm-68.97356-13.05598 18.5-.60629-.05932-12.72599c-.03263-6.99929-.37761-13.04427-.76662-13.43329-1.26149-1.26149-58.95191-.50918-59.74814.77914-.39141.63332-.48686,3.67794-.21211,6.76582s.00884,8.24503-.59093,11.46034c-.78991,4.23467-.78795,6.41129.00711,7.89687 1.04942,1.96086 1.60826,2.01617 12.7338,1.26028 6.39992-.43483 19.96121-1.06342 30.13621-1.39688zm80-49.04727c0-1.17986-1.95035-2.442-2.66667-1.72569s.54583,2.66667 1.72569,2.66667c.51754,0 .94098-.42344.94098-.94098zm-269.76427,121.7338c.29342-1.43542-3.62414-1.5772-8.92144-.32287-2.91605.69048-3.13829.57304-2.62559-1.38755 .80748-3.08779 6.96442-7.80645 12.64997-9.69489 4.12011-1.36848 5.50424-1.42944 8.6774-.38221 3.31047,1.09256 8.98393,5.22684 8.98393,6.54664 0,.47361-12.58631,6.44806-13.58406,6.44806-.29369,0-.25586-.45.08406-1 .8053-1.303-1.10808-1.28012-3.58002.04282-1.47808.79105-1.88472.73069-1.68425-.25z" fill="url(#linearGradient3263)" stroke="#000" stroke-width="1.8"/>
<path d="m624.5,699.42741c-7.54573-3.92447-9.48541-8.14819-9.49442-20.67453-.0054-7.49625-.12292-7.87699-3.62901-11.75783-3.00196-3.32281-3.5208-4.52391-3.025-7.00288 .71226-3.56131.37319-3.68648-2.27788-.8409-1.68394,1.80751-2.25464,1.94344-3.57138.85065-1.28727-1.06835-2.28968-1.06218-5.61269.03451-3.22831,1.06544-4.88829,1.09362-8.21757.13951-12.7149-3.64386-41.10651-10.17594-44.22961-10.17594-1.99862,0-4.82829-.63239-6.28815-1.40531s-6.24575-1.9081-10.6353-2.52263-9.78956-1.95461-12-2.97798c-4.53193-2.09814-14.05689-4.09937-19.43577-4.08353-1.97077.0058-12.13322,1.82264-22.58322,4.03742s-22.15,4.66069-26,5.43537-15.325,3.41937-25.5,5.8771-23.79995,5.64793-30.27767,7.08935-12.91199,3.05202-14.29837,3.57912c-2.76484,1.05119-4.81372,5.12406-5.9018,11.73189-.6471,3.92981-1.08305,4.42489-5.61188,6.37314-2.70066,1.16179-4.91028,2.46738-4.91028,2.90131s1.77248,1.08841 3.93885,1.45442c4.37248.73873 4.51018,2.06036.66214,6.35534-4.62686,5.16426-12.96822,6.6997-20.13311,3.70602-3.95914-1.65424-4.57823-3.55103-1.15901-3.55103 1.26988,0 3.18238-.66069 4.25-1.4682s2.95363-1.4825 4.19113-1.5c1.72485-.02438 2.25-.6153 2.25-2.5318 0-2.63132-1.81025-3.28975-3.73975-1.36025-1.65691,1.65691-15.29601,1.41121-16.37738-.29503-1.05677-1.66744-1.14907-5.80504-.13287-5.9565 .4125-.06148 2.1-.28324 3.75-.4928s4.35-.77142 6-1.24859c2.79434-.80811 2.60581-.91934-2.75-1.62243-4.62479-.60713-5.75-1.11213-5.75-2.58061 0-1.00416.37224-2.05582.82721-2.337s1.63448-3.17749 2.62115-6.43623c1.70656-5.63638 1.71001-6.17767.07091-11.11256-1.91116-5.75394-1.65682-6.73717 1.32934-5.13902 3.10735,1.663 9.15139,1.38629 9.15139-.41898 0-.825.45-1.5 1-1.5s1,.40598 1,.90217c0,1.55626 5.35175,2.77888 8.86498,2.02524 1.85075-.39702 4.77575-.3054 6.5.20359 3.41485,1.00804 15.63502.11663 15.63502-1.14051 0-.42708-.70352-1.04648-1.56338-1.37644-2.02741-.77799-.88787-2.61405 1.6224-2.61405 1.27431,0 1.94098.68694 1.94098,2 0,2.57704 2.74054,2.60634 11.14466.11913 7.35524-2.17678 12.41239-3.42547 22.85534-5.64334 14.56574-3.09347 20.11551-4.74357 23.36065-6.94578 1.80427-1.22442 6.62373-3.22956 10.70992-4.45588 8.36248-2.50969 19.07307-7.97792 23.13723-11.81257 2.61352-2.46593 3.01395-2.53186 11.5-1.89361 9.14992.68818 13.31505.0043 47.2922-7.76501 5.775-1.32052 13.425-2.93251 17-3.5822s17.75-3.80747 31.5-7.01729 29.855-6.78657 35.78889-7.94833c12.31991-2.41204 20.87086-5.30935 25.21111-8.54226 2.33742-1.74107 3.62175-4.19785 5.81515-11.12373 1.54834-4.88902 3.29922-10.14785 3.89086-11.68629 2.83344-7.36783 20.49765-9.61035 28.85045-3.66264 6.74087,4.79993 8.75849,16.79431 3.62563,21.55376-1.35692,1.25821-2.64686,2.10794-2.86652,1.88828-.34071-.34072-4.7718,1.19643-25.18935,8.7382-2.56822.94864-2.68368,1.1679-1.08588,2.06208 1.20446.67404 2.79493.65348 4.87379-.06303 1.69723-.58498 6.36137-1.83767 10.36475-2.78377s7.51745-2.10617 7.80902-2.57795c1.13903-1.84298 2.18404-.68542 2.78737,3.08755 .44288,2.76965 2.12828,5.65649 5.65585,9.68763 2.76373,3.15828 5.28535,6.77977 5.60359,8.04777s.98063,2.05701 1.47196,1.75335 .89333,1.27445.89333,3.50691-.37777,4.05902-.83948,4.05902c-1.12001,0-3.16052,4.58607-3.16052,7.10328 0,3.62973-14.349,8.42237-17.96024,5.99881-1.25322-.84106-1.19502-1.27305.41054-3.04717 1.02892-1.13695 1.68603-2.24542 1.46024-2.46327-1.33584-1.28882-5.00644-.8101-6.89812.89966l-2.2032,1.99131-1.91729-2.36776c-1.05452-1.30227-2.20344-3.54836-2.55318-4.99131-.92775-3.82782-5.81776-9.64844-9.62272-11.45401-3.07831-1.46076-4.01772-1.40806-13.75995.7719-5.75084,1.28683-13.83108,2.87571-17.95608,3.53086-8.91499,1.4159-13.29931,2.41187-22,4.99763-11.83128,3.51615-18.9122,5.02955-23.7349,5.07286-6.24762.05611-21.65434,5.02431-22.0565,7.11257-.32712,1.6986 4.04205,2.81326 11.10714,2.83363 2.09866.00606 4.67571.47125 5.72679,1.03377s9.68399,2.1603 19.18425,3.55063 18.39822,2.88254 19.77322,3.31602c4.70482,1.48321 13.99455-4.03136 14.00512-8.31372 .00669-2.70886 3.82467-8.90635 6.99488-11.35436 6.68288-5.16046 15.12059-5.2985 22.29164-.36469 5.1176,3.52101 7.4348,8.23265 8.34861,16.97559 .85759,8.20492-.96871,11.74889-9.6058,18.64028-3.94462,3.14735-7.42816,6.38991-7.74121,7.2057s.57895,4.93441 1.9822,9.15251c5.5853,16.78905 4.44557,23.52781-4.69947,27.78615-5.90687,2.75049-12.72378,3.07407-17.07597.81054zm9.5-37.42741c0-.55-.675-1-1.5-1s-1.5.45-1.5,1 .675,1 1.5,1 1.5-.45 1.5-1zm8.44423-.90976c.86297-1.39631-.48801-4.09024-2.05122-4.09024-.76615,0-1.39301.825-1.39301,1.83333 0,2.8474 2.19169,4.28356 3.44423,2.25691zm-5.92608-7.11961c.28296-.45784.11179-1.0813-.38038-1.38548-1.23684-.76441-7.28403,2.36918-6.62618,3.43361 .57952.93768 6.17148-.69693 7.00656-2.04813zm53.98404-33.80178c-.66386-.66385-4.50219,2.88313-4.50219,4.16045 0,.56063 1.12323-.03589 2.49606-1.3256s2.27559-2.56539 2.00613-2.83485zm-48.05983-22.07559c.30822-.49871-.34022-.67122-1.44098-.38337-2.33499.61061-2.63015,1.29011-.5604,1.29011 .79254,0 1.69316-.40803 2.00138-.90674zm-283.46242,47.38257c-.69572-.83829-1.00973-1.77938-.6978-2.0913 1.00937-1.00938 4.71786.70646 4.71786,2.18286 0,1.88817-2.42282,1.833-4.02006-.09156zm-5.97994-2.47583c0-.55.19844-1 .44098-1s.7191.45 1.05902,1 .14148,1-.44098,1-1.05902-.45-1.05902-1zm-15-6c0-.55.45-1 1-1s1,.45 1,1-.45,1-1,1-1-.45-1-1zm-34.80267-4.10719c-5.90848-2.95781-9.19733-8.03222-9.19733-14.19069 0-6.06036.72616-7.40762 9.16052-16.99559 7.50718-8.53397 7.62524-9.07413 3.69758-16.91669-1.02195-2.04059-1.8581-4.37784-1.8581-5.1939 0-1.51051 12.04688-11.02615 17.5-13.82298 1.65-.84626 5.36119-2.74375 8.24708-4.21663s5.69248-2.4027 6.23686-2.06626 1.69507,3.17632 2.55708,6.31083c4.22148,15.35043 6.00349,17.93739 15.73011,22.83564l7.06349,3.55712-4.63178,2.88289c-3.11907,1.94136-5.86811,2.85382-8.41731,2.79386-9.69128-.22794-19.97301,5.24058-19.61055,10.43021 .11353,1.62543-.4277,2.66296-1.54101,2.95409-.96279.25178-2.34552,2.37927-3.15024,4.84702-.78884,2.41905-2.6427,6.20397-4.11967,8.41094s-2.83811,5.35697-3.02474,7c-.32137,2.82927-.60387,3.00179-5.33932,3.2607-3.54614.19388-6.2511-.35293-9.30267-1.88056zm40.34768-26.14281c.93013-3.07862 1.93992-3.9987 3.94417-3.59378 1.52435.30796 1.47576.63028-.46636,3.09378-2.63329,3.34023-4.41323,3.59613-3.47781.5zm15.61278-25.42522c-4.64139-1.60041-9.9684-6.98395-11.16199-11.28042-1.43731-5.17376-1.25884-16.58117.27938-17.85777 1.9762-1.6401 25.41093-12.08743 33.15075-14.77878 3.80926-1.32459 7.90184-3.04778 9.09461-3.82931s6.17611-2.55992 11.07407-3.95196 12.60301-3.64718 17.12233-5.0114c11.39999-3.44127 37.00572-8.60708 42.89725-8.65428l4.88581-.03914-3.44306-1.49377c-1.89369-.82156-4.06388-1.25553-4.82265-.96436-.88733.3405-1.26446-.05757-1.05694-1.11561 .42733-2.17871 14.63387-9.97134 19.75618-10.83675 2.82845-.47786 5.41244-1.98079 8.62837-5.01852 4.32642-4.0867 5.02024-4.37662 12.05026-5.03539 4.10273-.38446 12.82638-.47763 19.38589-.20704s12.16447.25386 12.45549-.03715-.01873-1.18922-.68831-1.99601-1.26467-3.3232-1.32241-5.59201-.46262-7.99769-.89972-12.73084l-.79473-8.60573-10.52975-.64427c-5.79136-.35435-19.2026-.64427-29.80275-.64427-22.7926,0-22.92801.05284-21.86829,8.53448 .3628,2.90376.35833,7.06293-.00992,9.24261-.66883,3.95879-.67554,3.96375-6.24493,4.61832-6.22504.73164-6.45402.64069-6.82178-2.70953-.33564-3.05755-2.9904-8.22535-6.55921-12.76823-5.64893-7.19075-18.54158-8.96727-28.50202-3.92739-4.78993,2.42366-6.61626,4.10452-9.63851,8.87076-2.67487,4.21841-4.51206,6.05068-6.5,6.48261-1.52417.33116-3.44621,1.07346-4.27121,1.64955-1.28561.89775-1.16259,1.33039.86078,3.02714 1.29844,1.08882 2.90259,1.97968 3.56479,1.97968 1.28751,0 4.57443,6.11354 4.57443,8.50825 0,1.77934-3.92087,3.7955-10.5,5.39923-4.92541,1.20061-12.04485,3.04912-14,3.63498-1.16804.35 6.16588.77336 8.77084.50631 .97395-.09985 5.18986-1.73965 9.36867-3.64399 7.16979-3.26738 7.67387-3.36223 8.94736-1.68361 .74224.97835 1.36383,2.11068 1.38133,2.51629s1.90651,1.9209 4.19781,3.36734c4.97987,3.14365 4.58417,3.51789-6.79745,6.42882-4.22907,1.08161-10.14645,3.09152-13.14973,4.46647s-6.25104,2.49991-7.21723,2.49991-2.29644.65034-2.95612,1.4452-3.52727,2.20654-6.37244,3.13708-6.83605,2.52686-8.86862,3.54737c-2.4381,1.22412-3.9169,1.49737-4.346.80307s-1.04724-.56428-1.80442.3671c-.6347.78073-3.30309,1.99439-5.92976,2.69702s-5.01573,1.66578-5.30902,2.14033c-1.52968,2.47509-2.41522.08606-2.41522-6.51585 0-7.34856.01298-7.38406 3.18004-8.6959 1.74902-.72446 5.23181-2.88336 7.73952-4.79754s6.36419-4.08403 8.56996-4.8219l4.01048-1.34158-4.40351.44323c-2.42192.24378-5.70407,1.40479-7.29365,2.58001-1.71467,1.26772-3.99086,2.0098-5.59649,1.82457l-2.70635-.31221-.77532-30c-.42643-16.5-.64458-39-.48478-50 .26934-18.54067.45559-20.31109 2.55248-24.2634 2.60852-4.91664 9.03185-9.96969 13.57568-10.67958 3.5915-.56111 116.75433-1.49313 201.70791-1.66128 55.84-.11052 57.69427-.0533 61.5,1.89783 4.52492,2.31986 7.41439,5.25225 10.05706,10.20643 1.74127,3.26435 1.88084,6.81381 2.07305,52.71815 .18385,43.91168.38468,49.49073 1.86269,51.74646 1.87392,2.85997 2.13247,6.45697 2.48384,34.55579 .22189,17.74381.06041,19.9281-1.77425,24-2.4063,5.3406-6.39679,9.29639-11.54907,11.44863-3.23969,1.3533-9.50656,1.55804-44.5,1.45389-22.40111-.06668-45.45429-.06212-51.22929.01012-12.61674.15783-16.06387-.66456-17.80457-4.24768-1.66791-3.43328-2.56537-3.37893-5.19543.31464-2.80361,3.9373-6,4.04368-6,.19968 0-2.04064-1.49766-4.34657-5.52057-8.5-3.03632-3.13483-6.13465-5.69968-6.88519-5.69968s-2.87247-.634-4.7154-1.4089c-2.14205-.90066-3.94924-1.08861-5.0098-.52101-1.1266.60294-2.05295.41323-2.88648-.5911-.99754-1.20196-.92355-1.47899.395-1.47899 2.67272,0 1.832-1.73118-1.12756-2.32181-7.91803-1.58017-12.82063-2.79262-16.92037-4.18451-5.30667-1.80167-10.17459-1.19007-13.90912,1.7475-2.13193,1.67698-2.97784,1.82591-5.03835.88708-3.35865-1.5303-6.38216-1.4215-6.38216.22966 0,.78957 1.7732,1.73198 4.23662,2.25165 6.35175,1.33993 6.23984,3.90806-.23075,5.29575-6.35266,1.3624-6.05448,1.38492-5.3675-.40532 .35241-.91835-.00024-1.5-.90941-1.5-.81676,0-2.14662-.99643-2.95525-2.21429-1.23478-1.85968-2.39355-2.21428-7.23591-2.21428-5.23524,0-6.0312.29716-8.65174,3.23006-2.01551,2.25575-2.88606,4.28496-2.88606,6.72728 0,3.14954-.42252,3.6862-4.25,5.39807-4.64655,2.0782-14.2353,5.07316-16.24239,5.07316-.6945,0-1.80072.64825-2.45828,1.44056s-1.84339,1.19196-2.63518.88812-1.99639-.0932-2.67688.46808c-1.84084,1.51835-23.50458,1.93311-27.57948.52802zm213.14241-6.89771c5.35349-5.35349 4.18742-12.46754-2.58595-15.77651-4.47637-2.18682-7.31844-1.69594-11.74478,2.02858-2.86207,2.40827-3.12997,3.09208-2.64465,6.75029 1.11701,8.41982 11.33933,12.6337 16.97538,6.99764zm-60.8002-2.42707c.33992-.55-.08352-1-.94098-1s-1.55902.45-1.55902,1 .42344,1 .94098,1 1.2191-.45 1.55902-1zm28.09093-2.08543c6.86434-6.44871.33085-19.4102-8.68336-17.22651-3.42301.82922-7.70249,5.10173-8.43062,8.41687-1.93606,8.81485 10.36707,15.14804 17.11398,8.80964zm-53.84093-41.16457c-.22917-.6875-1.46667-1.25-2.75-1.25s-2.52083.5625-2.75,1.25c-.27485.82456.66111,1.25 2.75,1.25s3.02485-.42544 2.75-1.25zm-114.02536-12.40891c.42843-1.30214-5.11284-2.83724-6.70024-1.85617-1.566.96784-1.22228,2.31473.7256,2.84332 2.74765.74562 5.55727.28141 5.97464-.98715zm204.12697-12.23543c9.58281-6.82356 13.16717-16.63554 9.97237-27.29882-1.59369-5.31928-7.86291-12.1964-13.05763-14.32379-5.37367-2.20067-14.30912-2.31061-18.26635-.22476-9.15592,4.82608-16.42617,17.66447-14.60166,25.78478 .96849,4.31044 6.05238,11.55713 10.63884,15.16483 6.11349,4.80888 19.17143,5.27196 25.31443.89776zm11.14839-62.63704c0-1.61208-2.66157-3.14038-3.68563-2.11632-.71223.71222 1.54756,3.6477 2.80807,3.6477 .48266,0 .87756-.68912.87756-1.53138zm-140.7568,57.73741c1.80977-2.09524 3.7568-7.70118 3.7568-10.81671 0-1.85863.79965-2.52756 4.07622-3.40984 5.59933-1.50775 9.5058-.96912 9.13254,1.25921-.16018.95627.19315,2.64377.78519,3.75 .91539,1.71042 2.15573,2.02891 8.29123,2.12893 6.92793.11294 7.03588.15082 2.71482.95252-2.475.4592-10.28934,2.41148-17.3652,4.33842-10.41453,2.83613-12.5845,3.17853-11.3916,1.79747z" fill="url(#linearGradient3263)" stroke="#000" stroke-width="1.8"/>
<path d="m345.25,697.50913c-3.77642-1.64139-4.27734-3.50913-.94113-3.50913 1.26988,0 3.18238-.66069 4.25-1.4682s2.95363-1.4825 4.19113-1.5c1.72485-.02438 2.25-.6153 2.25-2.5318 0-2.63132-1.81025-3.28975-3.73975-1.36025-1.65691,1.65691-15.29601,1.41121-16.37738-.29503-1.05677-1.66744-1.14907-5.80504-.13287-5.9565 .4125-.06148 2.1-.28324 3.75-.4928s4.35-.77142 6-1.24859c2.79434-.80811 2.60581-.91934-2.75-1.62243-3.4776-.45653-5.75-1.24139-5.75-1.98599 0-1.63385 2.87628-7.34391 4.07132-8.08249 .51958-.32111 5.77858-.72712 11.68668-.90224 14.62963-.43362 34.6681-4.92393 60.242-13.49929 27.277-9.14644 42.37337-15.27107 73.0666-29.64328 9.0155-4.22154 14.6397-6.07679 25.5-8.41166 7.66337-1.64755 18.6584-4.07598 24.4334-5.39651 5.775-1.32052 13.425-2.93251 17-3.5822s17.75-3.80747 31.5-7.01729 29.855-6.78657 35.78889-7.94833c12.31991-2.41204 20.87086-5.30935 25.21111-8.54226 2.33742-1.74107 3.62175-4.19785 5.81515-11.12373 1.54834-4.88902 3.29922-10.14785 3.89086-11.68629 2.83344-7.36783 20.49765-9.61035 28.85045-3.66264 5.78668,4.12048 8.67462,15.96413 4.97859,20.41757-.62961.75863-4.60756,2.60982-8.8399,4.11374-18.63611,6.62221-34.31227,13.40045-56.69515,24.51451-25.04647,12.43665-30.1848,14.20032-46.5,15.96051-9.04496.97583-21.38075,5.02626-21.79667,7.15689-.32328,1.65607 4.10317,2.75356 11.29667,2.80089 3.79893.02499 7.48472,1.3602 6.47104,2.34418-.25907.25148-5.85555,4.10095-12.43661,8.55438-12.71575,8.60478-15.89032,9.59839-21.38014,6.69182-1.45986-.77292-6.24575-1.9081-10.6353-2.52263s-9.78956-1.95461-12-2.97798c-4.53193-2.09814-14.05689-4.09937-19.43577-4.08353-1.97077.0058-12.13322,1.82264-22.58322,4.03742s-22.15,4.66069-26,5.43537-15.325,3.42254-25.5,5.88415-21.875,5.17385-26,6.02722c-13.903,2.87621-19.49176,4.63918-21.21232,6.6914-.94177,1.12331-2.24054,4.72732-2.88616,8.00891-1.14985,5.84457-1.27326,6.0093-6.03768,8.0589-2.67511,1.1508-4.86384,2.4474-4.86384,2.88133s1.77248,1.08841 3.93885,1.45442c3.11121.52563 3.81533,1.01688 3.35099,2.3379-.8746,2.48817-4.4301,6.17529-7.49018,7.76744-3.43602,1.78776-11.33932,1.74411-15.54966-.08588zm284.23021-14.531c-1.73546-1.91766-1.74291-2.20403-.14446-5.55602 2.5859-5.42268 7.65068-11.69776 11.86101-14.69534 3.78538-2.69505 4.77067-5.35934 2.73484-7.39517-.75788-.75788-.61255-2.15943.5-4.82213 2.22366-5.32198 2.05414-6.86174-.6816-6.19086-9.35492,2.2941-17.93321,5.2521-23.80161,8.20738-3.79415,1.91071-8.30276,3.47401-10.01913,3.47401s-4.31511.61763-5.77497,1.37252c-6.79443,3.51335-12.198,4.3299-16.83919,2.54462l-2.8151-1.08285 4-3.45107c5.10118-4.40114 20.48629-14.04034 27.04002-16.94133 2.77201-1.22702 5.64667-2.96191 6.38812-3.85531 1.46605-1.76648 18.2805-10.51551 26.23557-13.65111 3.83489-1.51157 5.40098-1.70363 6.98391-.85647 2.80553,1.50148 5.7415,8.56674 6.47461,15.58084 .87762,8.39658-.89682,11.8783-9.58778,18.81267-3.94462,3.14735-7.42405,6.3792-7.73207,7.1819s.68789,5.215 2.21314,9.80514 2.53007,8.97926 2.23293,9.7536c-.7101,1.85048-7.3368,3.78685-12.95948,3.78685-3.22515,0-4.99122-.566-6.30876-2.02187zm-18.50027-18.5023c-.69572-.83829-.99522-1.79388-.66557-2.12353 1.02406-1.02406 3.68563.50424 3.68563,2.11632 0,1.95861-1.39777,1.96195-3.02006.00721zm54.0091-42.72583c-2.76439-4.53393-2.54814-6.59905.76096-7.26692 1.5125-.30526 4.775-1.21606 7.25-2.024 6.08297-1.98572 7-1.861 7,.95203 0,1.48676-1.1438,3.30776-2.98354,4.75-6.98466,5.47549-8.86648,6.83889-9.43932,6.83889-.33359,0-1.49824-1.4625-2.5881-3.25zm-104.48904-39.85376c-9.9-.33207-18.15912-.66957-18.35359-.75s.9929-1.67982 2.63862-3.55419 4.48037-5.5709 6.29922-8.21451l3.30701-4.80656 .84435,3.46451c.4644,1.90548 2.27187,4.70201 4.0166,6.21451 5.68131,4.9251 13.17176,3.02547 15.85035-4.01975 3.04083-7.998-6.3234-15.75301-14.1406-11.71058-1.75122.90559-3.00204,1.27163-2.77961.81343 6.42584-13.23738 6.94328-16.54783 3.42059-21.88401-4.34632-6.58383-17.98708-13.6327-30.60294-15.81408-4.675-.80835-9.76679-1.95691-11.3151-2.55236s-5.1483-1.08526-8-1.08844-7.8849-.4717-11.1849-1.04115-12.86866-1.2293-21.26369-1.46635-16.19269-.92818-17.32814-1.53585-2.73698-.84679-3.55896-.53137c-1.00952.38739-1.3898.03967-1.17186-1.07151 .42733-2.17871 14.63387-9.97134 19.75618-10.83675 2.82845-.47786 5.41244-1.98079 8.62837-5.01852 4.32642-4.0867 5.02024-4.37662 12.05026-5.03539 4.10273-.38446 12.82638-.47763 19.38589-.20704s12.16447.25386 12.45549-.03715-.01873-1.18922-.68831-1.99601-1.26467-3.3232-1.32241-5.59201-.46262-7.99769-.89972-12.73084l-.79473-8.60573-10.52975-.64427c-5.79136-.35435-19.2026-.64427-29.80275-.64427-22.7926,0-22.92801.05284-21.86829,8.53448 .3628,2.90376.35833,7.06293-.00992,9.24261-.66883,3.95879-.67554,3.96375-6.24493,4.61832-6.22504.73164-6.45402.64069-6.82178-2.70953-.33564-3.05755-2.9904-8.22535-6.55921-12.76823-5.64893-7.19075-18.54158-8.96727-28.50202-3.92739-4.78993,2.42366-6.61626,4.10452-9.63851,8.87076-2.67487,4.21841-4.51206,6.05068-6.5,6.48261-1.52417.33116-3.44621,1.07346-4.27121,1.64955-1.28561.89775-1.16259,1.33039.86078,3.02714 1.29844,1.08882 2.90259,1.97968 3.56479,1.97968 1.28751,0 4.57443,6.11354 4.57443,8.50825 0,1.77934-3.92087,3.7955-10.5,5.39923-5.14826,1.25494-9.05453,2.26162-16,4.12334-2.2.5897-6.67186,1.47676-9.93747,1.97123s-7.22276,1.84929-8.79365,3.01071c-1.68642,1.24682-3.96458,1.98379-5.56253,1.79945l-2.70635-.31221-.77532-30c-.42643-16.5-.64458-39-.48478-50 .26934-18.54067.45559-20.31109 2.55248-24.2634 2.60852-4.91664 9.03185-9.96969 13.57568-10.67958 3.5917-.56115 116.75515-1.49313 201.72054-1.66131 52.69677-.10432 57.87838.03263 61,1.61212 4.75035,2.4036 7.74577,5.32194 10.25612,9.99217 2.10801,3.9217 2.15418,4.96339 2.35876,53.21815 .18616,43.90887.38737,49.49088 1.86529,51.74646 1.87392,2.85997 2.13247,6.45697 2.48384,34.55579 .22017,17.60627.0498,19.95966-1.73746,24-2.41158,5.45172-7.97361,10.53197-13.04857,11.91831-4.54162,1.24064-44.83782,1.7937-69.76658.95753zm15.35161-77.79058c9.58281-6.82356 13.16717-16.63554 9.97237-27.29882-1.59369-5.31928-7.86291-12.1964-13.05763-14.32379-5.37367-2.20067-14.30912-2.31061-18.26635-.22476-9.15592,4.82608-16.42617,17.66447-14.60166,25.78478 .96849,4.31044 6.05238,11.55713 10.63884,15.16483 6.11349,4.80888 19.17143,5.27196 25.31443.89776zm11.14839-62.63704c0-1.61208-2.66157-3.14038-3.68563-2.11632-.71223.71222 1.54756,3.6477 2.80807,3.6477 .48266,0 .87756-.68912.87756-1.53138z" fill="url(#linearGradient3263)" stroke="#000" stroke-width="1.8"/>
<path d="m346.07511,697.69356c-4.13709-1.44176-5.26469-3.69356-1.84957-3.69356 1.31571,0 3.26571-.66069 4.33333-1.4682s2.95363-1.4825 4.19113-1.5c1.72485-.02438 2.25-.6153 2.25-2.5318 0-2.63132-1.81025-3.28975-3.73975-1.36025-1.65691,1.65691-15.29601,1.41121-16.37738-.29503-1.05677-1.66744-1.14907-5.80504-.13287-5.9565 .4125-.06148 2.1-.28324 3.75-.4928s4.35-.77142 6-1.24859c2.79434-.80811 2.60581-.91934-2.75-1.62243-3.4776-.45653-5.75-1.24139-5.75-1.98599 0-1.63385 2.87628-7.34391 4.07132-8.08249 .51958-.32111 5.77858-.72712 11.68668-.90224 19.91005-.59013 57.24263-10.83204 94.242-25.85458 13.53298-5.49468 17.63736-7.30455 39-17.19749 7.34217-3.40012 14.93473-6.06082 21-7.35913 5.225-1.11844 17.375-3.68004 27-5.69243s25.52352-5.41191 35.33005-7.55448 19.14137-3.89557 20.74409-3.89557 12.75964-2.4302 24.79315-5.40045c19.90438-4.91302 25.58803-6.86598 34.63271-11.90013 1.65-.91836 8.625-4.18466 15.5-7.25842s13.98225-6.26093 15.79389-7.08258c4.57698-2.07584 8.70611-2.24583 8.70611-.35842 0,.95765-3.07331,2.68953-8.5,4.78994-12.80303,4.95544-27.96607,11.7251-43,19.19768-7.425,3.69058-15.3,7.2813-17.5,7.97938-4.45578,1.41386-18.36771,9.09752-28.37927,15.67408-4.42266,2.90523-8.01805,4.46831-11.08346,4.81848-3.69202.42175-20.65025,4.14022-28.28727,6.20262-2.83923.76674-2.02222,2.31373 2.22658,4.21597l3.97657,1.78037-3.18173,2.35235c-4.55474,3.36747-1.7333,3.63747 4.20975.40286 2.76587-1.50537 5.31534-2.45055 5.6655-2.10039 .8589.85889-2.86888,3.82848-10.32082,8.22166-3.39578,2.00194-6.95303,4.50054-7.90499,5.55244-1.01331,1.1197-3.01388,1.89877-4.82585,1.87929l-3.09501-.03327 2.5-2.08244c1.375-1.14535 3.37285-2.69503 4.43967-3.44373 3.33777-2.3425.96408-2.6412-3.78747-.47662-2.49836,1.13813-5.01716,2.06933-5.59734,2.06933s-1.05486.50107-1.05486,1.1135c0,.68883-1.0488.89204-2.75.53281l-9.75-2.0661c-14.6355-3.10571-23.1363-4.54153-27.00067-4.56054-2.20036-.01082-11.42536,1.58919-20.5,3.55558s-21.44933,4.64061-27.49933,5.94272-20.9,4.65672-33,7.45468c-43.07525,9.96055-40.57521,8.83828-42.59848,19.12237-1.14985,5.84457-1.27326,6.0093-6.03768,8.0589-2.67511,1.1508-4.86384,2.4474-4.86384,2.88133s1.77248,1.08841 3.93885,1.45442c4.37254.73873 4.50696,2.03584.66214,6.38921-4.24444,4.80584-12.21404,6.36282-19.52588,3.81468zm187.42489-61.69356c.33992-.55 1.43638-1 2.43657-1s2.37874-.675 3.06343-1.5c1.02215-1.23162.94572-1.5-.42722-1.5-2.26981,0-7.57278,2.81905-7.57278,4.02568 0,1.27336 1.70799,1.25581 2.5-.02568zm59.47109-25.98295c2.81431-1.65938 5.45343-3.01705 5.86471-3.01705 1.18582,0 9.59999-8.89755 8.99052-9.50701-.82594-.82594-5.82632,1.30443-5.82632,2.48226 0,.56361-.96321,1.02475-2.14047,1.02475-2.34931,0-10.34121,3.57429-13.10953,5.8631-2.44168,2.01875-2.18304,3.39085.5,2.65247 2.45143-.67464 2.67544-.90614-4.75,4.90883-1.82696,1.43072-1.68185,1.43833 1.67708.08796 2.0224-.81304 5.9797-2.83594 8.79401-4.49531zm38.95502,73.57198c.88728-1.0691.88986-1.58473.01064-2.12812-.63819-.39443-1.53584-.1096-1.99476.63295-1.76315,2.85283-2.09247-1.90218-.36333-5.24598 3.62116-7.00255 7.83652-11.76857 10.4445-11.80888 2.23759-.03459 2.79024.74553 4.88311,6.89292 2.38866,7.01622 2.31214,10.06808-.25244,10.06808-.77492,0-1.96914.675-2.65383,1.5-.80283.96735-3.0204,1.5-6.24489,1.5-4.19085,0-4.8105-.22834-3.829-1.41097zm6.89721-1.9219c.18707-.96457-.31483-1.66713-1.19098-1.66713-1.85773,0-2.97896,1.63015-2.09972,3.05279 .90454,1.46356 2.90118.62281 3.2907-1.38566zm-27.84338-17.1913c-.69572-.83829-.99522-1.79388-.66557-2.12353 1.02406-1.02406 3.68563.50424 3.68563,2.11632 0,1.95861-1.39777,1.96195-3.02006.00721zm-22.22994-5.19208c-1.5125-.22913-2.75-.80606-2.75-1.28208 0-1.1821 4.48398-4.20376 10.5-7.07571 2.75-1.3128 6.38107-3.3995 8.06904-4.6371s5.99309-3.57602 9.56693-5.19647 7.06503-3.62966 7.75822-4.46489c1.48599-1.79052 26.39254-14.27758 30.28877-15.18548 2.38081-.55478 2.9204-.15973 4.7915,3.50791 2.67493,5.24331 3.76279,15.85598 2.04935,19.9926-.69913,1.68784-3.95765,5.04128-7.34329,7.55719-5.24841,3.90015-6.28134,4.32803-7.50181,3.10756-1.60786-1.60786-.64215-3.9991 1.31218-3.24915 1.30799.50192 2.50911-3.28738 2.50911-7.91574 0-3.00887-3.49227-4.21186-5.9004-2.03252-.9664.87457-2.27745,1.59013-2.91346,1.59013-2.27216,0-19.74439,6.18757-22.80417,8.07581-1.81995,1.12312-4.94233,1.92946-7.5,1.93686-2.86361.00828-6.42319,1.04778-10.27289,3-3.24001,1.64303-6.16501,2.91991-6.5,2.8375s-1.84658-.3373-3.35908-.56642zm77.40296-38.84739c-1.7346-3.80703-1.49965-4.20199 2.94647-4.95316 2.25469-.38093 4.8297-1.54548 5.72224-2.5879s2.4228-1.8953 3.40057-1.8953c3.09665,0 1.92253,2.8855-1.98535,4.87915-2.0697,1.05588-4.92587,3.08256-6.34704,4.50373l-2.58394,2.58394-1.15295-2.53046zm-25.65562-26.43342c1.86325-2.05887 4.50266-2.70412 4.50266-1.10077 0,.4962-1.42094,1.39752-3.15764,2.00294-3.11751,1.08677-3.13461,1.0753-1.34502-.90217zm-96.38007-12.81081c-2.21685-.67632-2.26277-.82649-.65963-2.15697 .9477-.78652 3.80906-4.35326 6.35857-7.92609l4.63549-6.49605 .87192,3.68687c1.97725,8.36064 11.93076,11.59958 17.7533,5.77703 7.91641-7.9164-2.03634-20.76911-12.06647-15.58232-1.77788.91938-3.05053,1.2967-2.8281.8385 6.42584-13.23738 6.94328-16.54783 3.42059-21.88401-4.34632-6.58383-17.98708-13.6327-30.60294-15.81408-4.675-.80835-9.76679-1.95691-11.3151-2.55236s-5.1483-1.08526-8-1.08844-7.8849-.4717-11.1849-1.04115-12.86866-1.2293-21.26369-1.46635-16.19269-.92818-17.32814-1.53585-2.73698-.84679-3.55896-.53137c-1.00952.38739-1.3898.03967-1.17186-1.07151 .42733-2.17871 14.63387-9.97134 19.75618-10.83675 2.82845-.47786 5.41244-1.98079 8.62837-5.01852 4.32642-4.0867 5.02024-4.37662 12.05026-5.03539 4.10273-.38446 12.82638-.47763 19.38589-.20704s12.14496.27338 12.41211.00622-.08977-1.44666-.79317-2.62112c-.80394-1.3423-1.36989-6.58039-1.52386-14.10369-.13472-6.58257-.46234-12.32007-.72805-12.75s-4.39406-.79764-9.1741-.81713c-8.04207-.03279-8.50432-.14214-6.19098-1.46456 1.375-.78602 2.275-1.46733 2-1.51402-3.09562-.52556-17.20907-.42002-18.63221.13933-1.67943.66008-1.69131.74121-.11779.8044 3.47652.13963 1.65804,2.07029-1.95,2.07029-2.87778,0-3.43333-.26667-2.5-1.2 1.96343-1.96343 1.37707-2.95322-1.55-2.61642-1.90087.21872-2.70711.85677-2.61111,2.06642 .12443,1.56785-.99248,1.75-10.73095,1.75-10.82094,0-10.87272.01149-11.51066,2.55323-.35245,1.40428-.3435,4.79456.0199,7.53395s.37886,6.4831.03438,8.31935c-.6009,3.20305-.85192,3.36516-6.18027,3.9914-3.05466.35902-5.74199.46471-5.97183.23486s-.59084-1.78436-.8022-3.45448c-.90677-7.16488-7.84206-15.8574-14.39648-18.0442-1.86958-.62376-6.17638-1.13411-9.57069-1.13411-9.26023,0-15.83441,3.65067-21.0214,11.67326-2.67494,4.13727-4.81869,6.35453-6.5,6.72287-1.37978.30228-3.18369,1.02096-4.00869,1.59705-1.28561.89775-1.16259,1.33039.86078,3.02714 1.29844,1.08882 2.94872,1.97968 3.6673,1.97968s2.1019,2.08272 3.07405,4.62826c1.71314,4.48579 1.70894,4.67111-.13639,6.02045-1.85391,1.35561-6.34914,2.8311-13.46574,4.41991-1.925.42976-6.2,1.49939-9.5,2.37696s-8.67186,2.01406-11.93747,2.52554-7.22276,1.88022-8.79365,3.04164c-1.68642,1.24682-3.96458,1.98379-5.56253,1.79945l-2.70635-.31221-.12833-32.82688c-.12752-32.61885-.11484-32.83209 2-33.65121 1.17058-.45339 5.27833-1.75257 9.12833-2.88706s10.375-3.21894 14.5-4.6321 9.525-2.81814 12-3.12217c2.475-.30403 8.775-1.44811 14-2.54239s11.91431-2.39037 14.86512-2.8802 5.87582-1.57528 6.5-2.41209 3.60988-2.3616 6.63488-3.38841c4.60939-1.56462 5.44934-2.21431 5.18714-4.01221-.23356-1.60151.21002-2.14528 1.75-2.14528 1.13457,0 2.06286.59168 2.06286,1.31484 0,1.0227 2.05519,1.21921 9.25.88447 15.69135-.73004 18.2224-.59111 20.87317,1.14574 1.39507.91408 2.72556,1.48005 2.95666,1.2577 .85027-.81806 24.00717-3.59303 44.42017-5.32302 15.53894-1.31691 31.14196-1.77973 60-1.77973 34.40798,0 40.11857.22493 48.5,1.91035 5.225,1.05069 10.7375,2.76883 12.25,3.81809l2.75,1.90775v13.9319c0,13.26524-.0957,13.93191-2,13.93191-2.49757,0-2.49757.7288 0,4.5 1.95209,2.94756 2.72303,7.54464 1.25,7.4537-.4125-.02547-2.1-1.80464-3.75-3.9537s-3.64094-3.92823-4.42431-3.9537c-1.00234-.03258-.78014.6394.75,2.26815 1.19587,1.27295 2.17431,2.8684 2.17431,3.54546s1.2375,2.44804 2.75,3.93554l2.75,2.70455 .35285,21.47303c.31634,19.25083.54919,21.72262 2.25,23.88486 1.68501,2.14214 1.89673,4.21382 1.89341,18.52697-.00428,18.4539.07324,18.22385-9.41584,27.94508-6.95904,7.1293-10.20613,13.69856-4.33803,8.77637 1.24169-1.04153 4.84511-3.97171 8.00761-6.51151 5.27392-4.23548 5.74954-4.43057 5.74442-2.35631-.00879,3.56545-2.01436,9.86722-2.95523,9.28573-.46897-.28984-.6284.33063-.35429,1.37883 .33703,1.28882-.78836,3.2317-3.47624,6.00138-4.0437,4.16675-7.20866,5.30634-7.20866,2.59557 0-.825-.38026-1.5-.84501-1.5-1.21374,0-4.6443,3.9752-3.55998,4.12517 .49775.06884-1.12001.53682-3.59501,1.03996-5.53302,1.1248-74.57788,2.03526-77.88273,1.027zm89.68273-49.39213c.66-.66 1.2-2.0651 1.2-3.12244 0-1.52913-.28478-1.6861-1.39194-.76725-1.54266,1.2803-2.82584,5.08969-1.71444,5.08969 .38851,0 1.24638-.54 1.90638-1.2zm-62.41602-25.01612c6.37928-1.88481 13.99181-10.01343 15.5808-16.63706 2.22791-9.28697-.49437-17.77879-7.82158-24.39849-6.18014-5.58338-17.02598-7.49545-24.58983-4.33508-5.32886,2.22654-12.00089,9.99276-13.98072,16.27351-2.11777,6.71835-1.46466,11.51512 2.39691,17.60419 6.45178,10.1734 17.60796,14.6858 28.41442,11.49293zm49.87575-38.08529c-1.6885-3.72524-4.25973-5.02339-4.25973-2.15062 0,1.31359 5.07817,6.70036 5.71807,6.06555 .11994-.11898-.53631-1.8807-1.45834-3.91493zm8.13328-.28038c1.29204-3.36699.46871-5.77513-3.08843-9.03334-4.48029-4.10379-5.7406-4.26912-4.83966-.63487 2.15534,8.69433 6.34242,13.80041 7.92809,9.66821zm-174.39301-6.41821c0-.55-.42344-1-.94098-1s-1.2191.45-1.55902,1 .08352,1 .94098,1 1.55902-.45 1.55902-1zm132.5-21.08333c0-1.7801-.62305-2.50482-2.36534-2.75133-3.8344-.54252-5.06396,1.62589-2.23328,3.93852 2.95907,2.41751 4.59862,1.99424 4.59862-1.18719zm86.05,139.15485c1.06393-1.03983 10.99069-5.07152 12.48702-5.07152 .52964,0 .96298.40869.96298.9082s-2.78738,1.8495-6.19417,3c-6.81973,2.30305-8.7364,2.61035-7.25583,1.16332zm-21.50883-7.82152c1.02802-2.6125 2.4518-6.73491 3.16397-9.16091 1.95997-6.6766 5.18127-8.5643 14.60057-8.55598 7.05611.00622 8.08826.27868 12.44429,3.28488 2.6125,1.80295 4.74398,3.59397 4.73662,3.98005s-2.14485,1.4437-4.75,2.35027c-12.75119,4.43733-16.33171,5.87443-22.9892,9.22709-3.95862,1.99353-7.62001,3.6246-8.13643,3.6246s-.09783-2.1375.93018-4.75zm-289.47662-151.5c-1.30507-4.3773-1.64708-4.75-4.35885-4.75-1.73062,0-3.75483-.95562-5.13409-2.42378-2.0292-2.15998-2.15385-2.797-1.1453-5.85295 2.728-8.2659 15.06534-13.83023 26.85344-12.11132 3.82654.55797 4.09128.76328 2.5,1.93873-1.28112.94635-1.47639,1.62289-.69697,2.41478 1.45955,1.48289 4.10286.34467 4.72506-2.03463 .41552-1.58897 1.40675-1.93083 5.59854-1.93083 5.19717,0 5.75937.3993 4.14808,2.94612-1.22773,1.94056.513,5.05388 2.82574,5.05388 .9954,0 2.58176.85298 3.52525,1.89552s3.71322,2.19511 6.15498,2.56127c3.84615.57677 4.43957.98919 4.43957,3.08543 0,1.76504-.69582,2.59432-2.57192,3.06519-2.02705.50875-3.25529-.01684-5.79761-2.48095-1.77413-1.71955-3.69702-3.12646-4.27309-3.12646s-1.86189-.9-2.85738-2c-3.38705-3.74264-5.90391-2.12401-5.68657,3.65712 .08482,2.25644-.32872,3.34288-1.27245,3.34288-.76897,0-2.10527.70714-2.96955,1.57143-1.42857,1.42857-1.57143,1.38924-1.57143-.43261 0-2.44139-3.52741-3.77592-5.54799-2.09899-.7986.66278-1.45201,2.27496-1.45201,3.58261 0,2.35029-.77868,2.78703-4.31324,2.41914-.99728-.1038-2.89395.51938-4.21482,1.38485-2.88173,1.88818-6.39189,2.05261-6.90739.32357zm5.43545-3.25c0-.825-.675-1.5-1.5-1.5s-1.5.675-1.5,1.5 .675,1.5 1.5,1.5 1.5-.675 1.5-1.5zm23-14.55902c0-.58246-.45-.7809-1-.44098s-1,.81648-1,1.05902 .45.44098 1,.44098 1-.47656 1-1.05902zm33.64828,12.54378c-1.24328-.9091-1.61884-2.00215-1.17183-3.41055 .51246-1.61463.09054-2.28834-1.90931-3.04868-2.92589-1.11243-3.22368-2.23576-1.06714-4.02553 .825-.68469 1.5-2.10391 1.5-3.15383s.675-2.16796 1.5-2.48454 1.5-1.14621 1.5-1.84362c0-1.7527 3.89145-2.25508 15-1.93647 11.96737.34324 11.22639.24314 10.5,1.41846-.33992.55.04602,1 .85765,1s1.63536-.47903 1.83052-1.06451c.5062-1.51861 7.76093-2.29724 14.06521-1.50957 4.9985.62452 5.46889.91713 6.6282,4.12315 1.09303,3.0227 1.67416,3.45093 4.68315,3.45093 2.4182,0 3.43527.45339 3.43527,1.53138 0,2.34621-2.84982,2.9145-4.97423.99194-2.61812-2.36936-4.02577-1.13307-4.02577,3.5357 0,4.28079-1.0016,4.80863-5.35809,2.82368-2.02482-.92256-3.14028-.73057-6.40022,1.10162-3.73564,2.09955-4.11462,2.13275-7.04519.61729-4.25449-2.20008-6.54417-2.00751-7.70937.64839-.55029,1.25429-1.87221,2.25-2.98713,2.25-2.83424,0-3.23256-4.02556-.56326-5.69256 2.11879-1.32321 2.96255-7.13361 1.19459-8.22628-.47777-.29527-3.37338,1.92817-6.43469,4.94099-3.12171,3.07226-6.473,5.47785-7.63133,5.47785-1.13592,0-2.06531.64844-2.06531,1.44098 0,2.14577-1.2937,2.54865-3.35172,1.04378zm9.35172-14.54378c0-.58246-.45-.7809-1-.44098s-1,.81648-1,1.05902 .45.44098 1,.44098 1-.47656 1-1.05902zm-27.46878,3.76589c-.42806-.98622-.4977-2.07372-.15476-2.41666 1.01549-1.0155 1.83409.41094 1.3667,2.38152-.41435,1.74695-.46826,1.74851-1.21194.03514zm5.96878-3.73815c-1.1-.49276-3.9125-1.37964-6.25-1.97086s-4.25-1.5076-4.25-2.0364c0-1.33756 10.72676-1.21259 11.5594.13466 .3726.60286 1.97415.9058 3.55902.67319 2.97618-.43681 3.30966-.04845 2.27459,2.6489-.66074,1.72185-3.73082,1.96705-6.89301.55051z" fill="url(#linearGradient3263)" stroke="#000" stroke-width="1.8"/>
<path d="m344.75,696.88947c-3.34926-1.28628-3.59402-2.88947-.44113-2.88947 1.26988,0 3.18238-.66069 4.25-1.4682s2.95363-1.4825 4.19113-1.5c1.72485-.02438 2.25-.6153 2.25-2.5318 0-2.63132-1.81025-3.28975-3.73975-1.36025-1.65691,1.65691-15.29601,1.41121-16.37738-.29503-1.05677-1.66744-1.14907-5.80504-.13287-5.9565 .4125-.06148 2.1-.28324 3.75-.4928s4.35-.77142 6-1.24859c2.79434-.80811 2.60581-.91934-2.75-1.62243-6.54065-.85864-7.03408-1.91028-3.44235-7.33653l2.19235-3.31213 11-.32023c7.61759-.22175 15.42376-1.28812 25.38658-3.46795 7.91262-1.73125 14.58118-2.95314 14.81901-2.71531s-1.85497.92298-4.65067,1.52255c-11.37942,2.44045-14.43194,5.28091-15.71208,14.62056-.58925,4.29905-.89148,4.66506-5.48323,6.64038-2.67279,1.1498-4.85961,2.44558-4.85961,2.87951s1.74975,1.08457 3.88833,1.44588c3.24621.54845 3.80288.98367 3.37093,2.63545-.28457,1.08819-2.09715,3.18347-4.02797,4.65617-2.86668,2.18652-4.72304,2.72307-10.12094,2.92525-3.63569.13618-7.84785-.22766-9.36035-.80853zm266.22994-32.41364c-.69572-.83829-.99522-1.79388-.66557-2.12353 1.02406-1.02406 3.68563.50424 3.68563,2.11632 0,1.95861-1.39777,1.96195-3.02006.00721zm-217.97994-4.73164c.275-.28661 8.375-3.11309 18-6.28106 21.21363-6.98224 43.75447-15.9529 66.5-26.46524 17.79652-8.22506 19.04279-8.58937 54.5-15.93144 7.975-1.65137 23.03218-4.83578 33.46039-7.07645 19.50302-4.19055 26.27767-4.79604 19.51931-1.74457-1.93617.87421-4.36841,2.52661-5.40499,3.67202s-2.89127,2.08255-4.12154,2.08255c-1.24065,0-4.45066,1.99039-7.20761,4.46913-5.62065,5.05345-20.21643,13.05958-25.67574,14.08375-2.00107.3754-4.07547,1.52341-4.6321,2.56349-.55445,1.036-1.6516,1.88363-2.43811,1.88363s-2.90818,1.27408-4.71481,2.83129c-4.16766,3.59225-6.7848,4.60956-6.7848,2.63733 0-2.03627-1.17091-1.85318-6.59602,1.03138-5.12832,2.72675-9.1793,3.06197-17.4872,1.44709-5.93483-1.15361-10.43993-.35081-53.41678,9.51876-43.62093,10.01749-54.48835,12.30845-53.5,11.27834zm126.5-20.74419c.33992-.55 1.29303-1 2.11803-1 .825,0 1.22189.45.88197,1s-1.29303,1-2.11803,1c-.825,0-1.22189-.45-.88197-1zm23.48506-1.95384c1.36678-1.05016 2.71607-1.67836 2.99843-1.39601 .63768.63769-2.97938,3.35796-4.42462,3.32761-.58238-.01223.05941-.88145 1.42619-1.9316zm40.51494-20.04616c.33992-.55 1.06803-1 1.61803-1s.72189.45.38197,1-1.06803,1-1.61803,1-.72189-.45-.38197-1zm-34.72476-35.79511-6.72476-.29512 4.22476-5.27895c2.32362-2.90342 5.21226-6.59562 6.4192-8.20488 2.11812-2.82417 2.19638-2.84596 2.25-.62628 .18708,7.74389 8.8429,13.42196 15.3713,10.0833 5.09118-2.60365 7.35964-9.88397 4.65462-14.93835-2.40631-4.49622-10.58155-6.3061-14.88123-3.29449-1.29573.90757-2.16384,1.24507-1.92912.75 6.56889-13.85532 6.99478-16.57067 3.44293-21.95103-4.34632-6.58383-17.98708-13.6327-30.60294-15.81408-4.675-.80835-9.76679-1.95691-11.3151-2.55236s-5.1483-1.08526-8-1.08844-7.8849-.4717-11.1849-1.04115-12.86866-1.2293-21.26369-1.46635-16.19269-.92818-17.32814-1.53585-2.73698-.84679-3.55896-.53137c-1.00952.38739-1.3898.03967-1.17186-1.07151 .42733-2.17871 14.63387-9.97134 19.75618-10.83675 2.84009-.47983 5.41738-1.98546 8.68966-5.07642l4.65205-4.39428 20.11238-.27026c20.00285-.2688 20.11412-.28252 20.43193-2.52027 .17575-1.2375-.16175-2.25-.75-2.25s-1.06955-.45-1.06955-1c0-2.65254 4.51129-.53739 8.79311,4.12273 15.02479,16.3522 17.43975,17.902 27.82291,17.85531 6.5005-.02923 12.18956-2.7647 16.69377-8.02685 7.9408-9.27705 7.74095-23.06772-.46946-32.39525-4.40226-5.00123-9.65944-7.40576-17.66959-8.08171-16.83701-1.42083-22.70573-1.77246-33.17074-1.98747-6.325-.12995-13.28289-.73269-15.46197-1.33944s-5.61773-.8384-7.64144-.51479-4.46727.14748-5.43015-.39137c-1.43755-.8045-.70797-1.32732 4.07893-2.92295 3.2063-1.06877 6.03166-2.54929 6.27858-3.29006 .32117-.9635-.08799-1.13761-1.4375-.61171-1.03755.40433-4.4688.94418-7.625,1.19967s-7.61242,1.12567-9.9027,1.93373c-8.6932,3.06714-20.71691,5.39376-30.35875,5.87451-5.5.27423-13.34677,1.21452-17.43727,2.08952-5.22219,1.11708-9.68973,1.39831-15,.94425-6.36783-.54448-8.47369-.30349-13.32833,1.5253-6.25618,2.35676-11.7344,6.36687-11.7344,8.5897 0,2.83379-5.5227,7.084-11.5,8.85027-3.3.97514-7.575,2.51403-9.5,3.41976l-3.5,1.64679 4.99276.31973c2.74602.17586 5.67102.85312 6.5,1.50504 2.52705,1.98727 5.90585,3.68529 7.33316,3.68529 1.10384,0 3.67408,3.86253 3.67408,5.52137 0,1.13432-6.5529,3.59381-11.71914,4.39852-3.17947.49526-7.75426,1.63465-10.1662,2.53199s-7.77154,2.06086-11.91024,2.5856c-4.15259.52649-9.04725,1.85227-10.92182,2.95829-1.86831,1.10233-4.45747,2.00423-5.75371,2.00423-2.32293,0-2.36161-.16879-2.69284-11.75-.39328-13.75088.01175-20.25 1.26198-20.25 .49315,0 3.75391-1.35 7.24614-3s6.76591-3 7.27483-3 2.56838-1.35436 4.57658-3.00969 5.14823-3.30495 6.97785-3.66583 4.86621-1.29479 6.74799-2.07536c5.0334-2.08786 2.14394-3.28207-6.71516-2.77535-4.87881.27905-8.35533,1.06415-10.5,2.3712s-5.5234,2.07004-10.20626,2.30452l-7,.35051 .20869-9.5c.11478-5.225.22728-9.77666.25-10.11479s3.30381-1.39774 7.29131-2.35466 9.275-2.54972 11.75-3.53955c7.90066-3.15973 28.31492-7.6669 47.65254-10.52098 2.2839-.33709 5.64705-1.7155 7.47367-3.06314s5.13298-2.95253 7.34746-3.56643c6.87534-1.906 16.9052-3.63229 18.20526-3.13341 .68223.26179 3.57283-.02423 6.42355-.6356 4.59088-.98456 5.67451-.87372 9.48322.97005 3.79034,1.83487 4.98845,1.96065 10.10719,1.06103 10.8497-1.90683 21.77311-3.13297 36.80711-4.13156 8.25-.54798 21.21545-1.46255 28.81212-2.03237 19.91-1.49345 69.45139-.48896 80.49853,1.63216 11.08589,2.12857 16.08781,4.17118 16.75172,6.84082 .28566,1.14864.38848,7.03843.2285,13.08843-.28093,10.62404-.36474,10.98982-2.45228,10.70215-3.44202-.47432-3.74118,1.60941-.83346,5.80525 4.13022,5.95991 2.47917,6.78864-2.28006,1.14447-3.13251-3.71498-5.65131-5.5418-9.76104-7.07944-3.04648-1.13984-5.79379-2.07243-6.10513-2.07243s.83053,1.59066 2.53751,3.5348 3.10359,3.75171 3.10359,4.01684-2.31776-.69245-5.15057-2.12794c-5.10259-2.58568-13.1902-5.39201-15.59943-5.41288-.6875-.00595-1.25.6141-1.25,1.37789 0,1.68604-4.59962,2.56006-11.81516,2.24512-2.92334-.12759-5.51564.09241-5.76069.48889-.65654,1.06231 9.92223,5.66773 13.78295,6.00035 1.82694.1574 3.9561-.1059 4.73148-.58511s3.39686-.87129 5.82551-.87129c3.81937,0 4.87627.50271 7.82582,3.72231 4.44911,4.85647 4.42525,6.61102-.08991,6.61102-1.925,0-3.5.35287-3.5.78416 0,.98941 10.30436,11.21584 11.30132,11.21584 .40613,0 2.52054-1.125 4.69868-2.5 4.80297-3.03198 4.78281-3.0307 5.18045-.32833 .41544,2.82332 2.81955,3.65097 2.81955.97068 0-1.11337.45-2.30243 1-2.64235 1.15622-.71458 1.22859.7383 1.18181,23.72537-.0221,10.8579.3235,16.64631.98513,16.5 .56055-.12395 1.5398.58616 2.17612,1.57804 .93524,1.45783.8216,1.99432-.59306,2.79969-.9625.54795-1.75,1.63545-1.75,2.41665s-1.34006,2.41112-2.97791,3.62204c-2.86096,2.1152-11.73676,17.47688-10.69807,18.51556 .27758.27758 1.45253-.00258 2.611-.62257s2.54503-.85613 3.08123-.52474 2.04101-.54779 3.344-1.95375 3.10499-2.55629 4.00442-2.55629c1.07769,0 1.63533-.8525 1.63533-2.5 0-1.375.45-2.5 1-2.5 1.70207,0 1.10869,5.209-1.37267,12.05008-2.22971,6.14729-3.65206,8.13054-12.1998,17.01078-2.0454,2.12497-3.42753,4.57201-3.42753,6.0684 0,1.80514-1.96886,4.37913-7.02881,9.18913l-7.02881,6.68161-23.72119.16198c-13.04665.08908-25.52119.20158-27.72119.25s-7.02614-.04478-10.72476-.20709zm54.12117-24.73969c3.12786-3.56243 3.88559-5.4652 2.17639-5.4652-1.03698,0-7.0728,7.02151-7.0728,8.22784 0,1.69388 1.94909.59417 4.89641-2.76264zm-2.58239-38.2152c.94827-7.25993.72809-9.29858-1.07236-9.92924-.95791-.33553-3.25992-2.00747-5.11557-3.71541l-3.37391-3.10535 .68925,3.85676c1.12033,6.26889 2.4201,8.91035 4.07247,8.27628 1.82415-.69999 2.04082,2.41224.28985,4.16321-.92834.92834-.76037,1.52592.75,2.6682 2.84243,2.14972 3.21922,1.92782 3.76027-2.21445zm-15.31402-13.80902c0-.24254-.70156-.44098-1.55902-.44098s-1.27636.45734-.9309,1.01631c.57081.92358 2.48992.48015 2.48992-.57533zm-205.45888-18.50751c1.08933-1.76258-.05904-2.0097-2.11412-.45494-1.69187,1.27997-1.72067,1.46174-.23602,1.48967 .93004.01749 1.9876-.44814 2.35014-1.03473zm19.33612-26.98825c4.26193-2.05914 4.99912-4.14626 1.69102-4.78759-1.69542-.32868-7.56826,4.35008-7.56826,6.02946 0,1.25479 1.26143.98825 5.87724-1.24187zm12.62276-6.93152c0-1.93999-3.18092-2.5234-5.09537-.93455-1.20412.99933-1.24388,1.41047-.20196,2.08831 1.94757,1.26702 5.29733.53744 5.29733-1.15376zm63.5-1.11687c1.8103-1.00896.81607-1.17863-5.5-.93861-4.9892.18959-7.5.89861-7.5,2.1179 0,1.08123 10.68288.11213 13-1.17929zm99.1875-2.57994c-.72187-.28887-1.58438-.25335-1.91667.07894s.25834.56864 1.3125.52522c1.16495-.04798 1.4019-.28494.60417-.60416zm-14.82707-.95281c5.31219-.72812 5.73646-1.59926 1.97822-4.06176-2.71372-1.7781-14.33865-2.76575-14.33865-1.2182 0,.43067-1.11321.92543-2.47379,1.09946-5.31616.67999 1.01383,4.37113 8.08422,4.71406 1.16073.0563 4.19823-.18381 6.75-.53356zm38.63957-3.3289c0-1.47231-3.65466-3.10493-5.42756-2.42461-3.01538,1.15712-1.74587,3.38943 1.92756,3.38943 1.925,0 3.5-.43417 3.5-.96482zm-9.18358-2.78518c-.30068-2.61317-.63983-2.77969-6.81642-3.34665-3.575-.32816-10.03816-1.14666-14.36258-1.81888-4.66563-.72526-9.54487-.90412-12-.43988l-4.13742.78234 6,.81189c3.3.44654 9.16099,1.13799 13.02442,1.53654 4.85148.50048 7.94488,1.41085 10,2.94296 1.63657,1.22008 4.24297,2.23258 5.792,2.25 2.48855.02799 2.77959-.28847 2.5-2.71832zm-45.3265-4.26631c-.34546-.55897-1.04702-.75742-1.55902-.44098-1.38704.85723-1.12841,1.45729.62812,1.45729 .85746,0 1.27636-.45734.9309-1.01631zm136.51008,132.46528c0-.52211 6.33738-3.44897 7.46788-3.44897 .29267,0 .53212.40598.53212.90217s-1.41715,1.3962-3.14922,2c-3.49762,1.21928-4.85078,1.37181-4.85078.5468zm-229-86.45789c0-.69882.72844-1.80324 1.61875-2.45425 1.39816-1.02236 1.43322-1.48075.2573-3.3637-1.92661-3.08499-.10403-5.51704 4.73278-6.31542 2.14014-.35326 4.22867-.4392 4.64117-.19098s.75,3.12475.75,6.39229c0,5.49109-.17039,5.94181-2.25,5.95199-1.2375.00605-3.9375.28993-6,.63084-2.69098.44479-3.75.26101-3.75-.65077zm79.25-5.69681c-4.1484-.79902-2.30142-1.79221 3.75199-2.01759 4.71767-.17565 5.99801.09118 5.99801,1.25 0,1.47138-4.32725,1.81205-9.75.76759zm-2.4789-9.0616c-.89815-3.4345.54023-4.22034 7.78453-4.25297 11.09991-.05 12.44437.05215 12.44437.94555 0,2.17232-5.83322,4.4286-12.56657,4.86072-6.51093.41784-7.18247.28171-7.66233-1.5533zm-157.87701-53.51935c-1.23699-.94211-1.35575-1.61966-.51695-2.94944 .82624-1.30986.72838-2.08693-.40563-3.22094-2.27163-2.27163-8.84258-.92002-10.21955,2.10211-1.28005,2.8094-1.56362,2.83987-4.61184.49553-2.23762-1.72092-2.28126-1.96697-.84235-4.7495 .83463-1.61401 3.85751-4.45083 6.71751-6.30404 4.25606-2.75783 6.45114-3.459 12.09236-3.86263l6.89236-.49314v3.52737c0,2.20118-.55975,3.74218-1.48881,4.09869-1.1186.42925-1.26483,1.16045-.58807,2.94047 .53169,1.39844.53338,2.94954.00413,3.78567-.49314.77909-.90352,2.42903-.91194,3.66653-.01739,2.55519-3.34374,3.07867-6.12122.96332zm84.83304-3.71332c-1.39842-1.1-3.70911-2-5.13486-2s-2.58538-.3375-2.57696-.75c.03162-1.54878 1.5513-3.03127 3.48289-3.39767 1.09902-.20846 1.99902-1.11537 2-2.01533s1.26248-2.80646 2.80332-4.23665c2.14495-1.99092 3.84409-2.60035 7.25-2.60035 4.43849,0 4.44848.00807 4.44848,3.58971 0,2.41873.67237,4.13416 2.06119,5.25875 3.48221,2.81973.78232,6.60368-3.00295,4.20869-1.00658-.63687-2.31258-.17948-4.32673,1.51532-3.49127,2.93771-3.79003,2.95594-7.00438.42753zm-68.72713-1c0-.55.45-1 1-1s1,.45 1,1-.45,1-1,1-1-.45-1-1zm47.50796-2.98712c-.39462-.63852.22965-2.16913 1.38727-3.40136s2.10477-3.19359 2.10477-4.35858c0-2.52197 3.82249-4.15819 5.05507-2.16383 1.0344,1.67369-.05185,3.60385-4.36026,7.7478-2.33418,2.24507-3.70412,2.95705-4.18685,2.17597zm-9.50796-1.60515c0-.87575.9-2.73644 2-4.13486s2-3.1569 2-3.90773c0-.90355 1.23105-1.36514 3.64079-1.36514h3.64079l-4.64079,4.08499c-2.55243,2.24674-4.64079,4.72174-4.64079,5.5s-.45,1.41501-1,1.41501-1-.71652-1-1.59227zm-38.28175-4.43832c.62699-2.39761 3.99311-4.96941 6.50426-4.96941 2.80461,0 2.07233,2.00126-1.14234,3.1219-1.6059.55982-3.16678,1.66141-3.46861,2.44798-.84823,2.21045-2.49205,1.68911-1.89331-.60047zm60.28175-3.46941c0-.825.45-1.5 1-1.5s1,.675 1,1.5-.45,1.5-1,1.5-1-.675-1-1.5z" fill="url(#linearGradient3263)" stroke="#000" stroke-width="1.8"/>
<path d="m341,667.05902c0-.58246.45-1.05902 1-1.05902s1,.19844 1,.44098-.45.7191-1,1.05902-1,.14148-1-.44098zm269.97994-2.58319c-.69572-.83829-.99522-1.79388-.66557-2.12353 1.02406-1.02406 3.68563.50424 3.68563,2.11632 0,1.95861-1.39777,1.96195-3.02006.00721zm-165.97994-21.47583c0-.55.45-1 1-1s1,.45 1,1-.45,1-1,1-1-.45-1-1zm4-1.39301c0-.21616.69837-.661 1.55194-.98855 .88992-.34149 1.29132-.17385.94098.39301-.58726.95021-2.49292,1.40545-2.49292.59554zm11.02688-4.35699c.02636-.73514 11.74818-6.28643 13.22312-6.26228 .4125.00675.75.62483.75,1.3735s-2.51504,2.32367-5.58898,3.5c-5.82733,2.22999-8.42974,2.66106-8.38414,1.38878zm57.97312-16.13527c0-2.25608 17.78442-11.08028 22.38955-11.10915 1.78876-.01122-7.08697,5.39807-14.19495,8.65107-8.05043,3.68431-8.1946,3.72756-8.1946,2.45808zm37.0318-40.86473c.0175-.4125.65248-1.56878 1.41107-2.56951 1.33085-1.75563 1.51208-1.75138 5.16195.12112 3.6099,1.85198 3.67678,1.97424 1.46409,2.67652-1.46293.46431-2.59545.28795-3.06876-.47788-.53603-.86732-.94539-.89787-1.43417-.10701-.76562,1.2388-3.58364,1.52326-3.53418.35676zm19.1575.02208c-1.82089-.22432-3.17089-.82446-3-1.33364 .65124-1.94048 16.41666-18.76049 18.5607-19.80228 1.2375-.60131 2.25-1.79586 2.25-2.65456s.93646-3.39689 2.08102-5.64042c1.49133-2.92324 1.7747-4.38546 1-5.16016-1.78277-1.78277-1.25992-3.37533 2.42138-7.37537 1.92632-2.09311 3.74934-4.57013 4.05116-5.5045s1.37214-1.96018 2.37851-2.27959c2.03134-.64472 3.06793-4.43346 3.06793-11.21328 0-3.28617-.71544-5.3997-2.75-8.12402-3.04385-4.07577-14.8044-16.18426-15.7192-16.18426-.31916,0-1.0728,1.2375-1.67475,2.75-.64243,1.61423-1.29076,2.21986-1.56979,1.46638-.26144-.70599.07776-1.95007.75376-2.76461 1.88227-2.26799 2.43489-14.68095.89881-20.18924-1.70518-6.11467-9.82769-14.54973-15.70677-16.31115-2.46296-.73792-4.2614-1.95556-4.55681-3.08521-.56769-2.17085-1.25329-2.08216 14.50281-1.87602 9.69556.12685 12.83616.57518 18.5,2.64093 3.75207,1.36849 7.60944,2.73881 8.57194,3.04517s1.75,1.1082 1.75,1.78187c0,1.59057 12.43721,13.54188 14.09245,13.54188 .69605,0 2.75746-.53948 4.58091-1.19885 2.93252-1.06041 3.48554-.97381 4.78919.75 .81062,1.07187 1.48815,3.63152 1.50565,5.68812s.93157,6.1066 2.0313,9c2.80243,7.37329 2.62714,15.21604-.48973,21.91143-1.36963,2.94212-2.49463,6.40282-2.5,7.69045-.01468,3.51726-8.70072,19.63836-13.74069,25.50241-2.43748,2.83604-5.07103,6.37323-5.85232,7.86041s-2.99467,3.45096-4.91864,4.36395-3.49812,2.34038-3.49812,3.17201-4.1625,5.72555-9.25,10.8754l-9.25,9.36336-5-.14938c-2.75-.08216-6.48982-.33292-8.3107-.55723zm28.70711-23.80688c3.12786-3.56243 3.88559-5.4652 2.17639-5.4652-1.03698,0-7.0728,7.02151-7.0728,8.22784 0,1.69388 1.94909.59417 4.89641-2.76264zm1.60359,22.5348c.33992-.55 1.04148-1 1.55902-1s.94098.45.94098,1-.70156,1-1.55902,1-1.2809-.45-.94098-1zm77.5-10.5c1.375-.78602 3.4-1.40853 4.5-1.38335 1.54837.03545 1.32256.35598-1,1.41946-3.98936,1.8267-6.70955,1.79864-3.5-.03611zm-113.21858-12.57461c-1.26722-.7297-1.56281-1.76842-1.1255-3.95501 .36349-1.81741.07482-3.58989-.74564-4.57849-.7363-.88719-1.48602-2.8008-1.66605-4.25248-.37694-3.03954-5.14051-10.10067-7.83429-11.61292-6.03633-3.38872-11.29608-7.47882-10.36084-8.05683 .59231-.36607 1.83607-.01582 2.76391.77833s3.82449,2.45338 6.43699,3.68717 4.75,2.57402 4.75,2.97829 1.79243,2.50163 3.98317,4.66079 3.99075,4.83001 4,5.93521 .91683,2.57152 2.01683,3.25848c3.99346,2.49395 1.80956,13.47698-2.21858,11.15746zm58.24881-9.98188c1.13659-2.12374 3.6572-3.58941 4.58219-2.66443 .98706.98707-2.08814,4.72092-3.88815,4.72092-1.50119,0-1.61468-.33626-.69404-2.05649zm-87.28023-23.63284c-.9625-.25152-1.75-.83219-1.75-1.29037 0-1.02924 3.82742-.10856 4.5746,1.10041 .56757.91834.08643.9507-2.8246.18996zm49.32895-6.72734c-.04342-1.05416.19293-1.64479.52522-1.3125s.36781,1.1948.07894,1.91667c-.31922.79773-.55618.56078-.60416-.60417zm-238.50859-50.48112c-.41502-.68473.19033-19.24242.63796-19.55746 .16042-.11291 3.44168-1.01593 7.29168-2.0067s9.025-2.59912 11.5-3.57408c8.02095-3.15965 25.9089-7.10567 47.5-10.47833 2.2-.34366 5.5863-1.70958 7.5251-3.03538 5.3135-3.6335 12.15562-5.34954 26.101-6.54626 11.11429-.95377 13.00408-.88804 15.78281.5489 2.94472,1.52277 4.07794,1.4983 16.8739-.36439 7.54446-1.09823 20.69219-2.46221 29.21719-3.03105 8.525-.56885 21.575-1.50811 29-2.08726 19.54168-1.52423 69.70706-.53175 80.8012,1.59859 11.09524,2.13056 16.09712,4.17258 16.76117,6.84278 .28566,1.14864.38848,7.03843.2285,13.08843-.28739,10.86836-.31868,10.99611-2.61478,10.67462-1.67416-.23441-2.47719.26077-2.87214,1.77108-.43166,1.65068-.84121,1.8533-1.92609.95293-.75782-.62894-1.37786-1.69367-1.37786-2.36609s-.86257-2.00318-1.91681-2.95726c-1.42385-1.28856-2.39101-1.48091-3.76065-.7479-1.0141.54273-3.109.74493-4.65533.44934s-3.88457.03683-5.19609.73874c-1.9337,1.03488-3.57455,1.03492-8.67785.00018-3.4613-.70181-7.28994-1.89243-8.50809-2.64583s-3.64354-1.36981-5.38975-1.36981-3.69175-.70677-4.32339-1.57059c-1.71002-2.3386-14.81091-3.93326-32.07204-3.90387-12.26287.02088-15.58398.34021-18.20034,1.75-1.76019.94845-4.51223,1.72446-6.11564,1.72446s-8.03827,1.34713-14.29966,2.99362-11.72186,2.9965-12.13436,3-.75-.85612-.75-1.91029c0-2.88076-1.45965-2.90652-11.39535-.20108-5.83027,1.58756-12.52121,2.59592-18.60465,2.80384-5.3259.18202-14.55286,1.45054-21,2.88706-16.20197,3.61007-19.87685,3.92297-24.31147,2.07007-2.73192-1.14147-4.44399-1.30649-6.28656-.60595-3.76095,1.42991-4.55659,1.18319-3.1983-.99179 1.89392-3.03264.35426-3.46558-5.99203-1.6849-3.21357.90168-6.93833,1.65048-8.27724,1.66401-3.78443.03822-13.27779,3.51251-17.83078,6.52553-2.92712,1.93708-5.63676,2.8015-9.36155,2.98647-2.88314.14318-6.59207.80398-8.24207,1.46845-5.03497,2.02762-19.54138,5.73776-19.92964,5.09717zm208.67964-24.3227c-2.62824-1.26755-2.96333-2.77951-.61602-2.77951 2.68657,0 9.36602,2.25236 9.36602,3.15829 0,1.18489-6.05088.92295-8.75-.37878zm-10.25-1.77951c-1.16887-.75538-.89294-.97275 1.25-.98469 1.5125-.00842 2.75.43469 2.75.98469 0,1.26441-2.04347,1.26441-4,0zm-176.98469-27.75c.00842-1.5125.43969-3.42124.95836-4.24164 1.46094-2.31081 2.88768.0046 2.30557,3.74164-.62753,4.02866-3.28584,4.43589-3.26393.5zm83.95994-2.8151c-2.01425-5.29788-1.39145-6.4349 3.52475-6.4349 4.5815,0 5.22202.67468 3.573,3.76357-.50985.95504-1.17073,2.52393-1.46862,3.48643-.83405,2.69491-4.49624,2.16462-5.62913-.8151zm-95.7234-3.83642c-.30657-.49604.19417-1.45145 1.11275-2.12313 1.02767-.75145 1.41718-1.88046 1.01255-2.93491-.49614-1.29291-.1935-1.63715 1.23262-1.40201 1.03963.17141 2.44201-.03455 3.11641-.45768s3.48689-1.03709 6.25-1.36433c4.71855-.55885 5.02382-.45838 5.02382,1.65334 0,1.23659-.98777,3.27463-2.19504,4.52899-1.8439,1.91581-2.57522,2.10742-4.57161,1.1978-1.8292-.83343-2.56898-.77152-3.21194.26881-.94406,1.52751-6.91604,2.01415-7.76956.63312zm67.93565-5.66098c.24063-.72188 1.02812-1.50937 1.75-1.75 .75-.25 1.125.125.875.875-.24063.72188-1.02812,1.50937-1.75,1.75-.75.25-1.125-.125-.875-.875zm10.04167-.125c.61807-1.85422 2.77083-2.16176 2.77083-.39583 0,.87083-.7125,1.58333-1.58333,1.58333s-1.40521-.53438-1.1875-1.1875z" fill="url(#linearGradient3263)" stroke="#000" stroke-width="1.8"/>
</g>
</svg>
