<?xml version="1.0" encoding="UTF-8" standalone="no"?>
<!DOCTYPE svg PUBLIC "-//W3C//DTD SVG 20010904//EN" "http://www.w3.org/TR/2001/REC-SVG-20010904/DTD/svg10.dtd">
<svg viewBox="0 0 60 60" xmlns="http://www.w3.org/2000/svg">
<defs>
<linearGradient>
<stop offset="0"/>
<stop offset="1" stop-color="#fff"/>
</linearGradient>
</defs>
<path d="m26.21163,34.29733c8.27066-9.79755 1.27241-30.41058 1.27241-30.41058" fill="none" stroke="#333" stroke-dasharray="3.125 3.125" stroke-linecap="round" stroke-linejoin="round" stroke-width="3.125"/>
<path d="m5.30826,34.29733h50.20464a2,2 0 0,1 2,2v18.64889a2,2 0 0,1 -2,2h-50.20464a2,2 0 0,1 -2-2v-18.64889a2,2 0 0,1 2-2" fill="#b3b3b3" fill-rule="evenodd" stroke="#333" stroke-width="2.79823" transform="matrix(1.000000,.000000,.000000,1.247191,.000000,-14.07660)"/>
<path d="m4.19895,29.39325h52.67775" fill="none" stroke="#333" stroke-linejoin="round" stroke-width="1.25" transform="translate(0,5.21688)"/>
<path d="m4.07171,44.09488h53.44119" fill="none" stroke="#333" stroke-linejoin="round" stroke-width="1.25" transform="translate(.12724,1.52689)"/>
<path d="m4.32619,48.42108h52.04154" fill="none" stroke="#333" stroke-linejoin="round" stroke-width="1.25" transform="translate(0,2.7993)"/>
<path d="m11.83341,39.89593v5.47136" fill="none" stroke="#333" stroke-linejoin="round" stroke-width="1.25"/>
<path d="m13.61478,45.36729v5.85308" fill="none" stroke="#333" stroke-linejoin="round" stroke-width="1.25"/>
<path d="m9.54307,24.81258v4.32619" fill="none" stroke="#333" stroke-linejoin="round" stroke-width="1.25" transform="translate(0,5.21688)"/>
<path d="m21.37648,45.24005v6.10757" fill="none" stroke="#333" stroke-linejoin="round" stroke-width="1.25"/>
<path d="m18.57718,40.15041v5.08964" fill="none" stroke="#333" stroke-linejoin="round" stroke-width="1.25"/>
<path d="m26.46611,40.4049v4.9624" fill="none" stroke="#333" stroke-linejoin="round" stroke-width="1.25"/>
<path d="m29.5199,45.24005v5.85308" fill="none" stroke="#333" stroke-linejoin="round" stroke-width="1.25"/>
<path d="m34.60954,40.53214v5.21688" fill="none" stroke="#333" stroke-linejoin="round" stroke-width="1.25"/>
<path d="m37.40884,45.36729v5.72584" fill="none" stroke="#333" stroke-linejoin="round" stroke-width="1.25"/>
<path d="m43.26192,40.4049v5.08964" fill="none" stroke="#333" stroke-linejoin="round" stroke-width="1.25"/>
<path d="m45.93398,45.24005v5.85308" fill="none" stroke="#333" stroke-linejoin="round" stroke-width="1.25"/>
<path d="m10.30652,51.6021v4.58067" fill="none" stroke="#333" stroke-linejoin="round" stroke-width="1.25"/>
<path d="m17.17753,51.47486v4.9624" fill="none" stroke="#333" stroke-linejoin="round" stroke-width="1.25"/>
<path d="m41.3533,51.47486v4.32619" fill="none" stroke="#333" stroke-linejoin="round" stroke-width="1.25"/>
<path d="m49.115,51.47486v4.45343" fill="none" stroke="#333" stroke-linejoin="round" stroke-width="1.25"/>
<path d="m15.26891,25.06706v4.45343" fill="none" stroke="#333" stroke-linejoin="round" stroke-width="1.25" transform="translate(0,5.21688)"/>
<path d="m21.122,24.5581v4.83516" fill="none" stroke="#333" stroke-linejoin="round" stroke-width="1.25" transform="translate(.25448,5.21688)"/>
<path d="m27.3568,24.93982v3.94447" fill="none" stroke="#333" stroke-linejoin="round" stroke-width="1.25" transform="translate(0,5.21688)"/>
<path d="m33.20989,24.68534v4.32619" fill="none" stroke="#333" stroke-linejoin="round" stroke-width="1.25" transform="translate(0,5.21688)"/>
<path d="m39.31745,24.68534v4.19895" fill="none" stroke="#333" stroke-linejoin="round" stroke-width="1.25" transform="translate(0,5.21688)"/>
<path d="m45.42502,24.93982v4.19895" fill="none" stroke="#333" stroke-linejoin="round" stroke-width="1.25" transform="translate(0,5.21688)"/>
<path d="m51.2781,24.43085v4.45343" fill="none" stroke="#333" stroke-linejoin="round" stroke-width="1.25" transform="translate(0,5.21688)"/>
<path d="m4.07171,44.09488h53.44119" fill="none" stroke="#333" stroke-linejoin="round" stroke-width="1.25" transform="translate(.12724,1.52689)"/>
<path d="m4.32619,48.42108h52.04154" fill="none" stroke="#333" stroke-linejoin="round" stroke-width="1.25" transform="translate(0,2.7993)"/>
<path d="m13.61478,45.36729v5.85308" fill="none" stroke="#333" stroke-linejoin="round" stroke-width="1.25"/>
<path d="m37.40884,45.36729v5.72584" fill="none" stroke="#333" stroke-linejoin="round" stroke-width="1.25"/>
<path d="m4.32619,40.59045h52.04154" fill="none" stroke="#333" stroke-linejoin="round" stroke-width="1.25" transform="translate(0,-.38172)"/>
<path d="m13.61478,34.73737v5.85308" fill="none" stroke="#333" stroke-linejoin="round" stroke-width="1.25" transform="translate(0,-.38172)"/>
<path d="m37.40884,34.73737v5.72584" fill="none" stroke="#333" stroke-linejoin="round" stroke-width="1.25" transform="translate(0,-.38172)"/>
<path d="m21.37648,45.24005v6.10757" fill="none" stroke="#333" stroke-linejoin="round" stroke-width="1.25" transform="translate(0,-10.81548)"/>
<path d="m29.5199,45.24005v5.85308" fill="none" stroke="#333" stroke-linejoin="round" stroke-width="1.25" transform="translate(0,-10.81548)"/>
<path d="m45.93398,45.24005v5.85308" fill="none" stroke="#333" stroke-linejoin="round" stroke-width="1.25" transform="translate(0,-10.81548)"/>
</svg>
